<svg width="186" height="98" viewBox="0 0 186 98" fill="none" xmlns="http://www.w3.org/2000/svg">
<path fill-rule="evenodd" clip-rule="evenodd" d="M0.60044 2.4396C0.60044 1.53385 1.33469 0.799605 2.24044 0.799605C3.14619 0.799605 3.88044 1.53385 3.88044 2.4396C3.88044 3.34535 3.14619 4.0796 2.24044 4.0796C1.33469 4.0796 0.60044 3.34535 0.60044 2.4396Z" fill="#1466CF"/>
<path fill-rule="evenodd" clip-rule="evenodd" d="M23.879 2.4396C23.879 1.53385 24.6133 0.799605 25.519 0.799605C26.4248 0.799605 27.159 1.53385 27.159 2.4396C27.159 3.34535 26.4248 4.0796 25.519 4.0796C24.6133 4.0796 23.879 3.34535 23.879 2.4396Z" fill="#1466CF"/>
<path fill-rule="evenodd" clip-rule="evenodd" d="M47.1615 2.4396C47.1615 1.53385 47.8958 0.799605 48.8015 0.799605C49.7073 0.799605 50.4415 1.53385 50.4415 2.4396C50.4415 3.34535 49.7073 4.0796 48.8015 4.0796C47.8958 4.0796 47.1615 3.34535 47.1615 2.4396Z" fill="#1466CF"/>
<path fill-rule="evenodd" clip-rule="evenodd" d="M70.4401 2.4396C70.4401 1.53385 71.1744 0.799605 72.0801 0.799605C72.9859 0.799605 73.7201 1.53385 73.7201 2.4396C73.7201 3.34535 72.9859 4.0796 72.0801 4.0796C71.1744 4.0796 70.4401 3.34535 70.4401 2.4396Z" fill="#1466CF"/>
<path fill-rule="evenodd" clip-rule="evenodd" d="M93.7187 2.4396C93.7187 1.53385 94.453 0.799605 95.3587 0.799605C96.2645 0.799605 96.9987 1.53385 96.9987 2.4396C96.9987 3.34535 96.2645 4.0796 95.3587 4.0796C94.453 4.0796 93.7187 3.34535 93.7187 2.4396Z" fill="#1466CF"/>
<path fill-rule="evenodd" clip-rule="evenodd" d="M117.001 2.4396C117.001 1.53385 117.735 0.799605 118.641 0.799605C119.547 0.799605 120.281 1.53385 120.281 2.4396C120.281 3.34535 119.547 4.0796 118.641 4.0796C117.735 4.0796 117.001 3.34535 117.001 2.4396Z" fill="#1466CF"/>
<path fill-rule="evenodd" clip-rule="evenodd" d="M140.28 2.4396C140.28 1.53385 141.014 0.799605 141.92 0.799605C142.826 0.799605 143.56 1.53385 143.56 2.4396C143.56 3.34535 142.826 4.0796 141.92 4.0796C141.014 4.0796 140.28 3.34535 140.28 2.4396Z" fill="#1466CF"/>
<path fill-rule="evenodd" clip-rule="evenodd" d="M163.562 2.4396C163.562 1.53385 164.297 0.799605 165.202 0.799605C166.108 0.799605 166.842 1.53385 166.842 2.4396C166.842 3.34535 166.108 4.0796 165.202 4.0796C164.297 4.0796 163.562 3.34535 163.562 2.4396Z" fill="#1466CF"/>
<path fill-rule="evenodd" clip-rule="evenodd" d="M0.60044 25.7197C0.60044 24.8139 1.33469 24.0797 2.24044 24.0797C3.14619 24.0797 3.88044 24.8139 3.88044 25.7197C3.88044 26.6254 3.14619 27.3597 2.24044 27.3597C1.33469 27.3597 0.60044 26.6254 0.60044 25.7197Z" fill="#1466CF"/>
<path fill-rule="evenodd" clip-rule="evenodd" d="M23.879 25.7197C23.879 24.8139 24.6133 24.0797 25.519 24.0797C26.4248 24.0797 27.159 24.8139 27.159 25.7197C27.159 26.6254 26.4248 27.3597 25.519 27.3597C24.6133 27.3597 23.879 26.6254 23.879 25.7197Z" fill="#1466CF"/>
<path fill-rule="evenodd" clip-rule="evenodd" d="M47.1615 25.7197C47.1615 24.8139 47.8958 24.0797 48.8015 24.0797C49.7073 24.0797 50.4415 24.8139 50.4415 25.7197C50.4415 26.6254 49.7073 27.3597 48.8015 27.3597C47.8958 27.3597 47.1615 26.6254 47.1615 25.7197Z" fill="#1466CF"/>
<path fill-rule="evenodd" clip-rule="evenodd" d="M70.4401 25.7197C70.4401 24.8139 71.1744 24.0797 72.0801 24.0797C72.9859 24.0797 73.7201 24.8139 73.7201 25.7197C73.7201 26.6254 72.9859 27.3597 72.0801 27.3597C71.1744 27.3597 70.4401 26.6254 70.4401 25.7197Z" fill="#1466CF"/>
<path fill-rule="evenodd" clip-rule="evenodd" d="M93.7187 25.7197C93.7187 24.8139 94.453 24.0797 95.3587 24.0797C96.2645 24.0797 96.9987 24.8139 96.9987 25.7197C96.9987 26.6254 96.2645 27.3597 95.3587 27.3597C94.453 27.3597 93.7187 26.6254 93.7187 25.7197Z" fill="#1466CF"/>
<path fill-rule="evenodd" clip-rule="evenodd" d="M117.001 25.7197C117.001 24.8139 117.735 24.0797 118.641 24.0797C119.547 24.0797 120.281 24.8139 120.281 25.7197C120.281 26.6254 119.547 27.3597 118.641 27.3597C117.735 27.3597 117.001 26.6254 117.001 25.7197Z" fill="#1466CF"/>
<path fill-rule="evenodd" clip-rule="evenodd" d="M140.28 25.7197C140.28 24.8139 141.014 24.0797 141.92 24.0797C142.826 24.0797 143.56 24.8139 143.56 25.7197C143.56 26.6254 142.826 27.3597 141.92 27.3597C141.014 27.3597 140.28 26.6254 140.28 25.7197Z" fill="#1466CF"/>
<path fill-rule="evenodd" clip-rule="evenodd" d="M163.562 25.7197C163.562 24.8139 164.297 24.0797 165.202 24.0797C166.108 24.0797 166.842 24.8139 166.842 25.7197C166.842 26.6254 166.108 27.3597 165.202 27.3597C164.297 27.3597 163.562 26.6254 163.562 25.7197Z" fill="#1466CF"/>
<path fill-rule="evenodd" clip-rule="evenodd" d="M0.60044 48.9997C0.60044 48.094 1.33469 47.3597 2.24044 47.3597C3.14619 47.3597 3.88044 48.094 3.88044 48.9997C3.88044 49.9055 3.14619 50.6397 2.24044 50.6397C1.33469 50.6397 0.60044 49.9055 0.60044 48.9997Z" fill="#1466CF"/>
<path fill-rule="evenodd" clip-rule="evenodd" d="M23.879 48.9997C23.879 48.094 24.6133 47.3597 25.519 47.3597C26.4248 47.3597 27.159 48.094 27.159 48.9997C27.159 49.9055 26.4248 50.6397 25.519 50.6397C24.6133 50.6397 23.879 49.9055 23.879 48.9997Z" fill="#1466CF"/>
<path fill-rule="evenodd" clip-rule="evenodd" d="M47.1615 48.9997C47.1615 48.094 47.8958 47.3597 48.8015 47.3597C49.7073 47.3597 50.4415 48.094 50.4415 48.9997C50.4415 49.9055 49.7073 50.6397 48.8015 50.6397C47.8958 50.6397 47.1615 49.9055 47.1615 48.9997Z" fill="#1466CF"/>
<path fill-rule="evenodd" clip-rule="evenodd" d="M70.4401 48.9997C70.4401 48.094 71.1744 47.3597 72.0801 47.3597C72.9859 47.3597 73.7201 48.094 73.7201 48.9997C73.7201 49.9055 72.9859 50.6397 72.0801 50.6397C71.1744 50.6397 70.4401 49.9055 70.4401 48.9997Z" fill="#1466CF"/>
<path fill-rule="evenodd" clip-rule="evenodd" d="M93.7187 48.9997C93.7187 48.094 94.453 47.3597 95.3587 47.3597C96.2645 47.3597 96.9987 48.094 96.9987 48.9997C96.9987 49.9055 96.2645 50.6397 95.3587 50.6397C94.453 50.6397 93.7187 49.9055 93.7187 48.9997Z" fill="#1466CF"/>
<path fill-rule="evenodd" clip-rule="evenodd" d="M117.001 48.9997C117.001 48.094 117.735 47.3597 118.641 47.3597C119.547 47.3597 120.281 48.094 120.281 48.9997C120.281 49.9055 119.547 50.6397 118.641 50.6397C117.735 50.6397 117.001 49.9055 117.001 48.9997Z" fill="#1466CF"/>
<path fill-rule="evenodd" clip-rule="evenodd" d="M140.28 48.9997C140.28 48.094 141.014 47.3597 141.92 47.3597C142.826 47.3597 143.56 48.094 143.56 48.9997C143.56 49.9055 142.826 50.6397 141.92 50.6397C141.014 50.6397 140.28 49.9055 140.28 48.9997Z" fill="#1466CF"/>
<path fill-rule="evenodd" clip-rule="evenodd" d="M163.562 48.9997C163.562 48.094 164.297 47.3597 165.202 47.3597C166.108 47.3597 166.842 48.094 166.842 48.9997C166.842 49.9055 166.108 50.6397 165.202 50.6397C164.297 50.6397 163.562 49.9055 163.562 48.9997Z" fill="#1466CF"/>
<path fill-rule="evenodd" clip-rule="evenodd" d="M0.60044 72.2795C0.60044 71.3738 1.33469 70.6395 2.24044 70.6395C3.14619 70.6395 3.88044 71.3738 3.88044 72.2795C3.88044 73.1853 3.14619 73.9195 2.24044 73.9195C1.33469 73.9195 0.60044 73.1853 0.60044 72.2795Z" fill="#1466CF"/>
<path fill-rule="evenodd" clip-rule="evenodd" d="M23.879 72.2795C23.879 71.3738 24.6133 70.6395 25.519 70.6395C26.4248 70.6395 27.159 71.3738 27.159 72.2795C27.159 73.1853 26.4248 73.9195 25.519 73.9195C24.6133 73.9195 23.879 73.1853 23.879 72.2795Z" fill="#1466CF"/>
<path fill-rule="evenodd" clip-rule="evenodd" d="M47.1615 72.2795C47.1615 71.3738 47.8958 70.6395 48.8015 70.6395C49.7073 70.6395 50.4415 71.3738 50.4415 72.2795C50.4415 73.1853 49.7073 73.9195 48.8015 73.9195C47.8958 73.9195 47.1615 73.1853 47.1615 72.2795Z" fill="#1466CF"/>
<path fill-rule="evenodd" clip-rule="evenodd" d="M70.4401 72.2795C70.4401 71.3738 71.1744 70.6395 72.0801 70.6395C72.9859 70.6395 73.7201 71.3738 73.7201 72.2795C73.7201 73.1853 72.9859 73.9195 72.0801 73.9195C71.1744 73.9195 70.4401 73.1853 70.4401 72.2795Z" fill="#1466CF"/>
<path fill-rule="evenodd" clip-rule="evenodd" d="M93.7187 72.2795C93.7187 71.3738 94.453 70.6395 95.3587 70.6395C96.2645 70.6395 96.9987 71.3738 96.9987 72.2795C96.9987 73.1853 96.2645 73.9195 95.3587 73.9195C94.453 73.9195 93.7187 73.1853 93.7187 72.2795Z" fill="#1466CF"/>
<path fill-rule="evenodd" clip-rule="evenodd" d="M117.001 72.2795C117.001 71.3738 117.735 70.6395 118.641 70.6395C119.547 70.6395 120.281 71.3738 120.281 72.2795C120.281 73.1853 119.547 73.9195 118.641 73.9195C117.735 73.9195 117.001 73.1853 117.001 72.2795Z" fill="#1466CF"/>
<path fill-rule="evenodd" clip-rule="evenodd" d="M140.28 72.2795C140.28 71.3738 141.014 70.6395 141.92 70.6395C142.826 70.6395 143.56 71.3738 143.56 72.2795C143.56 73.1853 142.826 73.9195 141.92 73.9195C141.014 73.9195 140.28 73.1853 140.28 72.2795Z" fill="#1466CF"/>
<path fill-rule="evenodd" clip-rule="evenodd" d="M163.562 72.2795C163.562 71.3738 164.297 70.6395 165.202 70.6395C166.108 70.6395 166.842 71.3738 166.842 72.2795C166.842 73.1853 166.108 73.9195 165.202 73.9195C164.297 73.9195 163.562 73.1853 163.562 72.2795Z" fill="#1466CF"/>
<path fill-rule="evenodd" clip-rule="evenodd" d="M0.60044 95.5596C0.60044 94.6538 1.33469 93.9196 2.24044 93.9196C3.14619 93.9196 3.88044 94.6538 3.88044 95.5596C3.88044 96.4653 3.14619 97.1996 2.24044 97.1996C1.33469 97.1996 0.60044 96.4653 0.60044 95.5596Z" fill="#1466CF"/>
<path fill-rule="evenodd" clip-rule="evenodd" d="M23.879 95.5596C23.879 94.6538 24.6133 93.9196 25.519 93.9196C26.4248 93.9196 27.159 94.6538 27.159 95.5596C27.159 96.4653 26.4248 97.1996 25.519 97.1996C24.6133 97.1996 23.879 96.4653 23.879 95.5596Z" fill="#1466CF"/>
<path fill-rule="evenodd" clip-rule="evenodd" d="M47.1615 95.5596C47.1615 94.6538 47.8958 93.9196 48.8015 93.9196C49.7073 93.9196 50.4415 94.6538 50.4415 95.5596C50.4415 96.4653 49.7073 97.1996 48.8015 97.1996C47.8958 97.1996 47.1615 96.4653 47.1615 95.5596Z" fill="#1466CF"/>
<path fill-rule="evenodd" clip-rule="evenodd" d="M70.4401 95.5596C70.4401 94.6538 71.1744 93.9196 72.0801 93.9196C72.9859 93.9196 73.7201 94.6538 73.7201 95.5596C73.7201 96.4653 72.9859 97.1996 72.0801 97.1996C71.1744 97.1996 70.4401 96.4653 70.4401 95.5596Z" fill="#1466CF"/>
<path fill-rule="evenodd" clip-rule="evenodd" d="M93.7187 95.5596C93.7187 94.6538 94.453 93.9196 95.3587 93.9196C96.2645 93.9196 96.9987 94.6538 96.9987 95.5596C96.9987 96.4653 96.2645 97.1996 95.3587 97.1996C94.453 97.1996 93.7187 96.4653 93.7187 95.5596Z" fill="#1466CF"/>
<path fill-rule="evenodd" clip-rule="evenodd" d="M117.001 95.5596C117.001 94.6538 117.735 93.9196 118.641 93.9196C119.547 93.9196 120.281 94.6538 120.281 95.5596C120.281 96.4653 119.547 97.1996 118.641 97.1996C117.735 97.1996 117.001 96.4653 117.001 95.5596Z" fill="#1466CF"/>
<path fill-rule="evenodd" clip-rule="evenodd" d="M140.28 95.5596C140.28 94.6538 141.014 93.9196 141.92 93.9196C142.826 93.9196 143.56 94.6538 143.56 95.5596C143.56 96.4653 142.826 97.1996 141.92 97.1996C141.014 97.1996 140.28 96.4653 140.28 95.5596Z" fill="#1466CF"/>
<path fill-rule="evenodd" clip-rule="evenodd" d="M163.562 95.5596C163.562 94.6538 164.297 93.9196 165.202 93.9196C166.108 93.9196 166.842 94.6538 166.842 95.5596C166.842 96.4653 166.108 97.1996 165.202 97.1996C164.297 97.1996 163.562 96.4653 163.562 95.5596Z" fill="#1466CF"/>
</svg>
