<svg width="46" height="67" viewBox="0 0 46 67" fill="none" xmlns="http://www.w3.org/2000/svg">
<path fill-rule="evenodd" clip-rule="evenodd" d="M20.403 21.235C21.2737 21.6704 22.1001 22.2901 22.2034 23.0649C22.1901 23.8007 21.8722 24.4981 21.3253 24.9906C20.7739 23.7986 20.4606 22.5103 20.403 21.1981V21.235ZM43.2318 54.4378C42.4939 58.4812 41.3282 62.8123 37.7792 64.3396C33.4407 66.2063 25.9737 63.6018 15.5702 56.703C9.43137 52.608 5.28471 48.3211 3.17449 43.8867C3.75739 41.8429 6.29555 34.7523 14.1093 32.1477L14.9209 31.8747L14.5298 31.1368C14.4856 31.0557 10.3094 22.7402 12.6557 16.2915C13.7088 13.5121 15.908 11.3209 18.6913 10.2781C19.038 10.1084 26.9698 6.39707 31.4706 12.3072C29.5967 13.0237 27.7769 13.8744 26.0254 14.8527C24.6014 14.2624 21.982 14.1665 19.9899 17.2212C17.3558 21.2572 20.3293 26.304 20.4547 26.518L20.8679 27.2115L21.5172 26.7319C21.6131 26.6582 23.9078 24.9537 23.6422 22.8361C23.4798 21.5375 22.4321 20.4603 20.5359 19.6339C20.669 19.0618 20.9012 18.5174 21.2221 18.0254C23.17 15.0741 25.4499 16.1956 25.7008 16.3358L26.1139 16.5719L26.4976 16.2989C26.4976 16.2989 29.4047 14.292 40.5903 10.5659L41.8963 16.8154L33.3743 19.5602C31.1205 20.3554 29.2531 21.9775 28.1504 24.0979C26.4017 27.7871 28.0692 31.5795 28.1504 31.7419L28.5931 32.738L29.3309 31.9485C32.9168 28.2593 39.5942 29.6464 41.3282 30.0965L41.3724 30.1629C44.1467 38.3013 44.2279 48.6974 43.2318 54.4378L43.2318 54.4378ZM1.53649 37.1502C1.41843 29.1816 7.70483 22.873 10.4644 20.5341C10.5484 24.1573 11.364 27.7262 12.8623 31.0262C7.98287 32.9467 4.15144 36.8533 2.32598 41.7691C1.83096 40.2782 1.56477 38.7209 1.53649 37.1502V37.1502ZM40.7158 28.3552L40.76 28.4437C38.1628 27.9051 32.843 27.2558 29.1612 30.1481C28.6344 28.3628 28.7493 26.4493 29.4859 24.7398C30.386 22.873 32.2601 21.4416 34.9606 20.5488L35.0196 20.6005C37.5209 22.3123 39.3729 25.0866 40.7158 28.3552H40.7158ZM36.7536 20.0323L43.6524 17.8188L41.7487 8.63273L32.8135 11.5841C29.6039 7.15705 24.7784 7.15705 21.5319 7.80635C21.4065 6.59629 21.4434 3.13583 25.5827 1.35763L24.9924 0C21.6697 1.23669 19.6368 4.59938 20.0858 8.11623V8.16788C19.4023 8.36511 18.734 8.61171 18.0862 8.90572L17.6583 9.09756V9.06067C16.799 6.44406 16.6062 3.65436 17.0975 0.94444L15.6219 0.63454C15.0482 3.69334 15.2796 6.84873 16.2933 9.79113C15.9194 10.0125 15.5604 10.2584 15.2161 10.529V10.4847L9.53469 2.53817L8.33939 3.40144L11.1358 7.28985C9.10121 6.1785 6.69718 5.95946 4.49525 6.68482L4.96009 8.11623C9.18053 6.70696 12.7886 10.1158 14.0134 11.466V11.5029C12.7543 12.6912 11.7936 14.16 11.2096 15.7897C10.8909 16.6784 10.6683 17.5985 10.5455 18.5345C8.81899 19.8405 -0.145759 27.0935 0.00180091 37.1871C0.0462809 39.556 0.573521 41.8909 1.55127 44.049V44.1818H1.64719C3.86071 48.9851 8.19921 53.5893 14.7217 57.9352C23.2659 63.6018 29.8179 66.4055 34.6139 66.4055C35.9005 66.4181 37.1762 66.167 38.3621 65.6677C42.5604 63.8674 43.918 59.0936 44.6854 54.6665C46.1832 46.1002 45.2461 27.1304 36.7536 20.0323L36.7536 20.0323Z" fill="#1466CF"/>
</svg>
