<svg width="79" height="68" viewBox="0 0 79 68" fill="none" xmlns="http://www.w3.org/2000/svg">
<path fill-rule="evenodd" clip-rule="evenodd" d="M58.5091 54.9419H55.4848V57.9663C55.4848 59.2264 54.4767 60.2345 53.2165 60.2345C51.9564 60.2345 50.9483 59.2264 50.9483 57.9663V54.9419H47.924C46.6638 54.9419 45.6557 53.9338 45.6557 52.6737C45.6557 51.4136 46.6638 50.4055 47.924 50.4055H50.8223V47.3811C50.8223 46.121 51.8304 45.1129 53.0905 45.1129H53.2165C54.4767 45.1129 55.4848 46.121 55.4848 47.3811V50.4055H58.5091C59.1392 50.4055 59.6432 50.6575 60.0213 51.0355C60.3993 51.4136 60.6514 52.0436 60.6514 52.6737C60.6514 53.9338 59.6433 54.942 58.5091 54.942L58.5091 54.9419ZM78.9234 40.7024C78.5453 39.1902 77.1592 38.0561 75.521 38.0561H30.7861C29.904 38.0561 29.0219 38.4341 28.3918 39.0642C27.7618 39.6943 27.3837 40.7024 27.3837 41.7105C27.5097 43.4747 29.1479 44.7348 30.9121 44.7348H34.1885V64.897C34.1885 66.1572 35.1966 67.2913 36.5827 67.2913H69.7244C70.9845 67.2913 72.1186 66.2832 72.1186 64.897V44.7348H75.521C76.4031 44.7348 77.2852 44.3568 77.9153 43.7267C78.7974 42.9706 79.1754 41.8365 78.9234 40.7024H78.9234Z" fill="#007BBF"/>
<path fill-rule="evenodd" clip-rule="evenodd" d="M21.9646 20.5424C21.9646 23.818 19.5713 26.2117 16.2962 26.2117C13.0211 26.2117 10.6278 23.818 10.6278 20.5424C10.6278 17.3928 13.1471 14.7472 16.2962 14.7472C19.4453 14.8731 22.0906 17.3928 21.9646 20.5424Z" fill="#2D3E50"/>
<path fill-rule="evenodd" clip-rule="evenodd" d="M18.438 63.6338C19.8242 63.6338 21.2104 63.5078 22.7227 63.5078C23.9829 63.3818 25.2432 63.3818 26.3774 63.3818C27.7636 63.3818 29.0238 62.2478 29.0238 60.7357C29.0238 59.2236 27.8896 58.0896 26.3774 58.0896C25.1171 58.0896 23.7309 58.2156 22.4707 58.2156C19.5722 58.3416 16.5476 58.4676 14.1532 57.9636C12.0108 57.5856 10.1205 56.3255 8.86029 54.4354C7.7261 52.7974 7.47405 50.9073 7.09598 48.5132C7.09598 48.1352 6.96997 47.7572 6.96997 47.5052L5.20566 36.0387C4.95361 34.6526 3.6934 33.6446 2.18113 33.8966C0.794892 34.1486 -0.213284 35.4087 0.0387621 36.9207L1.80307 48.3872C1.80307 48.7652 1.92909 49.0172 1.92909 49.3952C2.30715 52.0413 2.68522 54.9395 4.57555 57.5856C6.5919 60.4837 9.49041 62.4998 12.893 63.1298C14.6573 63.5078 16.5476 63.6338 18.438 63.6338H18.438Z" fill="#007BBF"/>
<path fill-rule="evenodd" clip-rule="evenodd" d="M21.8419 47.6354C21.8419 47.6354 26.8821 47.8875 30.2842 48.1396C30.6622 48.1396 30.9142 48.3917 30.9142 48.7698V55.828C30.9142 56.2061 30.6622 56.4582 30.2842 56.4582C29.5282 56.4582 28.0161 56.4582 27.3861 56.4582C24.362 56.4582 21.3379 56.4582 18.1878 56.4582C13.3996 56.4582 10.8796 54.3155 10.8796 49.526C10.7536 44.3584 10.3755 39.3168 9.99752 34.2752C9.74551 31.1242 11.8876 28.4774 14.9117 28.0993H15.0377C16.0457 27.9732 16.9278 28.2253 17.8098 28.6034C19.3218 29.3597 20.4559 30.8721 20.8339 32.8888C21.0859 34.5273 21.2119 36.1658 21.3379 37.9304C21.3379 38.4345 21.4639 38.8127 21.4639 39.3168L21.8419 47.6354Z" fill="#2D3E50"/>
<path fill-rule="evenodd" clip-rule="evenodd" d="M59.3912 9.57699C59.3912 9.82902 59.3912 9.95503 59.3912 10.081C59.3912 10.2071 59.3912 10.4591 59.2652 10.5851C59.2652 10.7111 59.2652 10.8371 59.2652 10.9631C59.2652 11.4672 59.1392 11.7192 58.8872 11.9712C58.7612 11.9712 58.7612 12.0973 58.6351 12.0973C58.6351 12.0973 58.6351 12.0973 58.5091 12.2233C58.5091 12.2233 58.5091 12.3493 58.3831 12.3493C58.2571 12.6013 58.0051 12.9794 58.0051 12.9794C57.627 13.8615 57.249 14.6175 56.6189 15.3736C55.6108 16.6338 54.2247 17.2638 52.7125 17.0118C52.0824 16.8858 51.4524 16.6338 50.8223 16.2557C49.8142 15.7517 48.9321 14.6175 48.554 13.6094C48.554 13.4834 48.176 12.6013 48.05 12.2233H47.924C47.924 12.2233 47.924 12.2233 47.798 12.2233C47.2939 11.9712 47.1679 11.3412 47.0419 10.9631C47.0419 10.8371 47.0419 10.7111 47.0419 10.5851C47.0419 10.4591 47.0419 10.2071 46.9159 10.081C46.9159 9.95503 46.9159 9.82901 46.9159 9.703V9.57699C46.9159 9.45098 46.9159 9.32496 47.0419 9.32496H47.1679H47.2939H47.4199H47.5459C47.6719 9.32496 47.6719 9.19895 47.798 9.07293C47.924 8.94692 47.924 8.8209 47.924 8.56888C47.924 8.31685 47.924 8.06482 47.798 7.8128C49.1841 7.8128 50.4443 7.8128 51.8304 7.56077C52.2084 7.43476 52.5865 7.43476 52.9645 7.30874C54.0986 7.05671 55.2328 6.55266 56.2409 5.79658C56.7449 6.42665 57.375 6.9307 58.1311 7.18273H58.2571C58.2571 7.43476 58.1311 7.68679 58.1311 7.8128V8.06483C58.1311 8.31686 58.0051 8.56889 58.1311 8.82091C58.1311 8.94692 58.2571 8.94692 58.2571 9.07294C58.5091 9.32497 58.7612 9.32497 59.0132 9.32497C59.2652 9.19896 59.3912 9.32497 59.3912 9.577V9.57699ZM59.6432 8.06483C59.6432 8.06483 59.6432 7.93882 59.6432 8.06483V7.8128C59.6432 7.56077 59.6432 7.43476 59.7693 7.18273C59.8953 6.55266 60.0213 5.92259 60.0213 5.41854C60.1473 3.40232 59.0132 1.76414 57.249 0.882039C56.9969 0.756029 56.8709 0.756029 56.6189 0.630009C55.4848 0.251969 54.3507 -6.10352e-05 53.2165 -6.10352e-05C52.9645 -6.10352e-05 52.7125 -6.10352e-05 52.4605 -6.10352e-05C51.7044 -6.10352e-05 50.8223 0.125949 49.9402 0.503999C49.8142 0.503999 49.8142 0.630009 49.6881 0.630009C49.3101 0.882039 49.0581 1.13407 48.806 1.51211C48.428 1.76414 48.176 2.01617 47.9239 2.26819C47.5459 2.3942 47.2939 2.64623 47.0418 3.02427C46.7898 3.52833 46.6638 4.03238 46.6638 4.78846C46.6638 5.54454 46.6638 6.17461 46.6638 6.67867C46.6638 6.9307 46.7898 7.18272 46.7898 7.43475C46.7898 7.56076 46.9158 7.81279 46.9158 7.93881C46.9158 7.93881 46.9158 7.93881 46.7898 7.93881C46.1597 8.06482 45.7817 8.82091 45.7817 9.45098C45.7817 9.57699 45.7817 9.82902 45.7817 9.95503C45.7817 10.2071 45.7817 10.4591 45.9077 10.5851C45.9077 10.7111 45.9077 10.8371 45.9077 10.9631C46.0337 11.9712 46.5378 12.7273 47.2939 13.1054C47.2939 13.1054 47.2939 13.1054 47.2939 13.2314C47.9239 15.8777 50.0662 17.7679 52.4604 18.1459C52.7125 18.1459 52.9645 18.1459 53.3425 18.1459C55.2327 18.1459 56.8709 17.1378 58.005 15.2476C58.2571 14.8696 58.3831 14.4915 58.6351 14.1135C58.7611 13.9875 58.7611 13.7354 58.7611 13.6094C58.7611 13.3574 58.8871 13.2314 58.8871 13.1054C59.0131 12.9794 59.1392 12.8533 59.2652 12.7273L59.5172 12.4753C60.1473 11.9712 60.2733 11.2152 60.2733 10.7111C60.2733 10.5851 60.2733 10.4591 60.2733 10.3331C60.2733 10.081 60.3993 9.82901 60.3993 9.703C60.3993 9.57699 60.3993 9.32496 60.3993 9.19895C60.5253 8.94692 60.2733 8.19084 59.6432 8.06482L59.6432 8.06483Z" fill="#2D3E50"/>
<path fill-rule="evenodd" clip-rule="evenodd" d="M59.3912 29.7392C59.3912 29.2351 59.7693 28.7311 60.3993 28.7311H61.6595V27.4709C61.6595 26.9669 62.0375 26.4628 62.6676 26.4628C63.1716 26.4628 63.6757 26.8409 63.6757 27.4709V28.7311H64.9358C65.1879 28.7311 65.4399 28.8571 65.5659 28.9831C65.6919 29.1091 65.8179 29.3611 65.8179 29.6132C65.8179 30.1172 65.4399 30.6213 64.8098 30.6213H63.5497V31.8814C63.5497 32.3855 63.1716 32.8895 62.5416 32.8895C62.0375 32.8895 61.5335 32.5115 61.5335 31.8814V30.6213H60.2733C59.7693 30.7473 59.3912 30.2432 59.3912 29.7392ZM68.8423 26.5888C68.7162 25.7067 68.3382 24.9506 67.7081 24.4466C67.3301 24.0686 66.826 23.6905 66.448 23.4385C64.9358 22.5564 63.1716 21.8003 61.5335 21.2963C61.4074 21.2963 61.2814 21.1702 61.1554 21.1702C61.0294 21.1702 60.9034 21.0442 60.7774 21.0442C60.3993 20.9182 59.8953 20.7922 59.5172 20.6662C59.3912 20.9182 59.2652 21.0442 59.1392 21.2963C58.7612 21.8003 58.3831 22.4304 58.0051 22.9344C57.375 23.8165 56.7449 24.5726 56.1149 25.3287C55.7368 25.7067 55.4848 26.2108 55.1068 26.5888C55.1068 26.5888 55.1068 26.5888 54.9807 26.7149C54.8547 26.8409 54.8547 26.8409 54.7287 26.9669C54.7287 26.7149 54.7287 26.5888 54.6027 26.3368C54.3507 24.6986 54.2247 23.3125 54.2247 23.1865C54.3507 23.0605 54.3507 22.8084 54.4767 22.6824V22.5564C54.4767 22.4304 54.6027 22.4304 54.6027 22.3044C54.6027 22.3044 54.6027 22.3044 54.6027 22.1784C54.6027 22.0524 54.7287 21.9263 54.7287 21.8003C54.7287 21.6743 54.7287 21.5483 54.6027 21.4223V21.2963V21.1703L54.4767 21.0443C54.3507 20.9182 54.2247 20.9182 54.0987 20.9182C53.9726 20.9182 53.7206 20.9182 53.5946 20.9182C53.3426 20.9182 53.2166 20.9182 52.9645 20.9182C52.8385 20.9182 52.5865 20.9182 52.4605 20.9182C52.3345 20.9182 52.3345 20.9182 52.2085 20.9182C52.0824 20.9182 52.0824 20.9182 51.9564 20.9182C51.9564 20.9182 51.8304 20.9182 51.7044 21.0443L51.5784 21.1703V21.2963V21.4223C51.5784 21.5483 51.4524 21.6743 51.4524 21.8003C51.4524 21.9263 51.5784 22.0524 51.5784 22.1784C51.5784 22.1784 51.5784 22.1784 51.5784 22.3044C51.5784 22.4304 51.7044 22.4304 51.7044 22.5564V22.6824C51.7044 22.6824 51.7044 22.6824 51.7044 22.8084C51.8304 22.9344 51.8304 23.0605 51.9564 23.3125C51.9564 23.4385 51.7044 24.9507 51.5784 26.4628C51.5784 26.7149 51.5784 26.8409 51.4524 27.0929C51.3264 26.9669 51.3264 26.9669 51.2003 26.8409C50.8223 26.3368 50.4443 25.9588 50.0662 25.4547C49.4362 24.6986 48.8061 23.8165 48.176 23.0605C47.672 22.3044 47.1679 21.6743 46.6639 20.9182C46.1598 21.0442 45.5297 21.1702 45.0257 21.4223C43.1355 22.0523 41.3713 22.8084 39.7331 23.6905C39.229 23.9426 38.851 24.3206 38.473 24.6986C37.8429 25.3287 37.4648 26.0848 37.3388 26.8409C37.3388 26.9669 37.3388 27.0929 37.3388 27.3449V32.3855V36.0399H68.7163V32.3855V27.3449C68.8423 26.9669 68.8423 26.7148 68.8423 26.5888L68.8423 26.5888Z" fill="#2D3E50"/>
</svg>
