<svg width="73" height="56" viewBox="0 0 73 56" fill="none" xmlns="http://www.w3.org/2000/svg">
<path fill-rule="evenodd" clip-rule="evenodd" d="M43.9411 12.877L43.4926 13.4116L41.6758 11.8871C41.6263 11.8466 41.5706 11.8145 41.5108 11.792L32.4539 4.19223C32.4214 4.13744 32.3803 4.08832 32.332 4.04678L30.526 2.53125L30.9754 1.99581C31.4426 1.43902 32.1464 1.13721 32.8718 1.18265C33.5972 1.22808 34.2579 1.61534 34.652 2.22608V2.22615L35.8332 4.05674C37.0961 6.01935 38.9243 7.55293 41.0767 8.4552L43.0753 9.2959C43.7453 9.57778 44.2417 10.1612 44.4125 10.8678C44.5833 11.5744 44.4083 12.3201 43.941 12.877H43.9411ZM30.3007 29.109C30.1636 29.2726 29.9718 29.3808 29.7609 29.4139L23.2956 30.428C23.155 30.4501 23.0271 30.5222 22.9356 30.6312L16.6664 38.1026C16.423 38.3913 16.0465 38.5319 15.6734 38.4735H15.6734L14.3739 38.2669L22.3061 28.8136C22.3612 28.7927 22.4183 28.7773 22.4764 28.7677L28.9417 27.7536C29.0823 27.7316 29.2101 27.6594 29.3017 27.5504L41.3484 13.1936L42.7022 14.3296L30.3007 29.109ZM4.55829 49.7812C4.42761 50.04 4.19175 50.23 3.91104 50.3025C3.82124 50.3277 3.72491 50.3125 3.64727 50.2609L1.26632 48.263C1.20203 48.1954 1.17032 48.1033 1.17943 48.0105C1.20215 47.7214 1.34831 47.4561 1.58055 47.2825L4.97759 44.6288L6.58175 45.9749L4.55829 49.7812ZM10.8576 33.2286L17.1267 25.7574C17.2182 25.6484 17.2671 25.5099 17.2644 25.3676L17.1404 18.8243C17.1364 18.6108 17.2097 18.4031 17.347 18.2396L29.7485 3.46009L31.1023 4.59606L19.0556 18.9527C18.9641 19.0618 18.9152 19.2002 18.9178 19.3426L19.0418 25.8857C19.0459 26.0991 18.9725 26.3068 18.8353 26.4703L11.1383 35.6433L10.6647 34.2707C10.5426 33.9135 10.6156 33.5184 10.8575 33.2285L10.8576 33.2286ZM36.3607 17.305L27.9195 10.2218L32.0047 5.35325L40.4459 12.4362L36.3607 17.305ZM34.4674 19.5613L26.0262 12.4783L27.1622 11.1245L35.6034 18.2075L34.4674 19.5613ZM7.21378 44.9673L5.85997 43.8313L19.7695 27.2545L21.034 28.3154L12.6683 38.2852C12.5871 38.3822 12.5394 38.5028 12.5321 38.6291L7.21378 44.9673ZM22.294 27.6039C22.2205 27.6158 22.1477 27.6318 22.0759 27.6516L20.2106 26.0865C20.2177 26.0123 20.2207 25.9378 20.2198 25.8634L20.1 19.541L25.2689 13.3808L33.7101 20.4638L28.5411 26.624L22.294 27.6039ZM45.5577 10.591C45.3038 9.51823 44.5503 8.63256 43.5321 8.20998L41.5336 7.36928C39.6001 6.55871 37.9577 5.18102 36.8232 3.41798L35.642 1.58738C35.0452 0.662269 34.0444 0.075649 32.9456 0.00679897C31.8468 -0.062051 30.7806 0.395079 30.0729 1.23846L29.2236 2.2506C29.2206 2.25404 29.2188 2.25814 29.216 2.26164L16.4445 17.4822C16.1242 17.8638 15.953 18.3485 15.9625 18.8466L16.0823 25.169L9.95509 32.4711C9.44825 33.0785 9.29505 33.9064 9.55095 34.655L10.2709 36.7416L4.73151 43.3431C4.69498 43.3606 4.66035 43.3818 4.6282 43.4065L0.855312 46.3538C0.340972 46.7445 0.0278922 47.3444 0.00150219 47.9898C-0.0188378 48.4388 0.168262 48.8722 0.508982 49.1654L2.88992 51.1632C3.14837 51.3786 3.47517 51.4947 3.81159 51.4908C3.92045 51.4906 4.02904 51.4799 4.13584 51.4589C4.76681 51.3209 5.3032 50.9084 5.59856 50.334L7.84594 46.1066C7.86461 46.0706 7.87949 46.0328 7.89034 45.9938L13.4908 39.3195L15.4884 39.6371C15.6041 39.6555 15.721 39.6648 15.8381 39.6647C16.5054 39.6643 17.1386 39.3699 17.569 38.8601L23.6962 31.5579L29.9433 30.578C30.4355 30.5008 30.8831 30.2481 31.2033 29.8665L43.9008 14.7341C43.9355 14.7082 43.9671 14.6785 43.9953 14.6456L44.8437 13.6344C45.5563 12.7933 45.8219 11.6613 45.5577 10.591H45.5577Z" fill="#1466CF"/>
<path fill-rule="evenodd" clip-rule="evenodd" d="M70.9411 16.877L70.4926 17.4116L68.6758 15.8871C68.6263 15.8466 68.5706 15.8145 68.5108 15.792L59.4539 8.19223C59.4214 8.13744 59.3803 8.08832 59.332 8.04678L57.526 6.53125L57.9754 5.99581C58.4426 5.43902 59.1464 5.13721 59.8718 5.18265C60.5972 5.22808 61.2579 5.61534 61.652 6.22608V6.22615L62.8332 8.05674C64.0961 10.0193 65.9243 11.5529 68.0767 12.4552L70.0753 13.2959C70.7453 13.5778 71.2417 14.1612 71.4125 14.8678C71.5833 15.5744 71.4083 16.3201 70.941 16.877H70.9411ZM57.3007 33.109C57.1636 33.2726 56.9718 33.3808 56.7609 33.4139L50.2956 34.428C50.155 34.4501 50.0271 34.5222 49.9356 34.6312L43.6664 42.1026C43.423 42.3913 43.0465 42.5319 42.6734 42.4735H42.6734L41.3739 42.2669L49.3061 32.8136C49.3612 32.7927 49.4183 32.7773 49.4764 32.7677L55.9417 31.7536C56.0823 31.7316 56.2101 31.6594 56.3017 31.5504L68.3484 17.1936L69.7022 18.3296L57.3007 33.109ZM31.5583 53.7812C31.4276 54.04 31.1918 54.23 30.911 54.3025C30.8212 54.3277 30.7249 54.3125 30.6473 54.2609L28.2663 52.263C28.202 52.1954 28.1703 52.1033 28.1794 52.0105C28.2022 51.7214 28.3483 51.4561 28.5806 51.2825L31.9776 48.6288L33.5818 49.9749L31.5583 53.7812ZM37.8576 37.2286L44.1267 29.7574C44.2182 29.6484 44.2671 29.5099 44.2644 29.3676L44.1404 22.8243C44.1364 22.6108 44.2097 22.4031 44.347 22.2396L56.7485 7.46009L58.1023 8.59606L46.0556 22.9527C45.9641 23.0618 45.9152 23.2002 45.9178 23.3426L46.0418 29.8857C46.0459 30.0991 45.9725 30.3068 45.8353 30.4703L38.1383 39.6433L37.6647 38.2707C37.5426 37.9135 37.6156 37.5184 37.8575 37.2285L37.8576 37.2286ZM63.3607 21.305L54.9195 14.2218L59.0047 9.35325L67.4459 16.4362L63.3607 21.305ZM61.4674 23.5613L53.0262 16.4783L54.1622 15.1245L62.6034 22.2075L61.4674 23.5613ZM34.2138 48.9673L32.86 47.8313L46.7695 31.2545L48.034 32.3154L39.6683 42.2852C39.5871 42.3822 39.5394 42.5028 39.5321 42.6291L34.2138 48.9673ZM49.294 31.6039C49.2205 31.6158 49.1477 31.6318 49.0759 31.6516L47.2106 30.0865C47.2177 30.0123 47.2207 29.9378 47.2198 29.8634L47.1 23.541L52.2689 17.3808L60.7101 24.4638L55.5411 30.624L49.294 31.6039ZM72.5577 14.591C72.3038 13.5182 71.5503 12.6326 70.5321 12.21L68.5336 11.3693C66.6001 10.5587 64.9577 9.18102 63.8232 7.41798L62.642 5.58738C62.0452 4.66227 61.0444 4.07565 59.9456 4.0068C58.8468 3.93795 57.7806 4.39508 57.0729 5.23846L56.2236 6.2506C56.2206 6.25404 56.2188 6.25814 56.216 6.26164L43.4445 21.4822C43.1242 21.8638 42.953 22.3485 42.9625 22.8466L43.0823 29.169L36.9551 36.4711C36.4483 37.0785 36.2951 37.9064 36.551 38.655L37.2709 40.7416L31.7315 47.3431C31.695 47.3606 31.6604 47.3818 31.6282 47.4065L27.8553 50.3538C27.341 50.7445 27.0279 51.3444 27.0015 51.9898C26.9812 52.4388 27.1683 52.8722 27.509 53.1654L29.8899 55.1632C30.1484 55.3786 30.4752 55.4947 30.8116 55.4908C30.9205 55.4906 31.029 55.4799 31.1358 55.4589C31.7668 55.3209 32.3032 54.9084 32.5986 54.334L34.8459 50.1066C34.8646 50.0706 34.8795 50.0328 34.8903 49.9938L40.4908 43.3195L42.4884 43.6371C42.6041 43.6555 42.721 43.6648 42.8381 43.6647C43.5054 43.6643 44.1386 43.3699 44.569 42.8601L50.6962 35.5579L56.9433 34.578C57.4355 34.5008 57.8831 34.2481 58.2033 33.8665L70.9008 18.7341C70.9355 18.7082 70.9671 18.6785 70.9953 18.6456L71.8437 17.6344C72.5563 16.7933 72.8219 15.6613 72.5577 14.591H72.5577Z" fill="#1466CF"/>
</svg>
