<svg width="39" height="50" viewBox="0 0 39 50" fill="none" xmlns="http://www.w3.org/2000/svg">
<path fill-rule="evenodd" clip-rule="evenodd" d="M37.6061 8.81907C37.6061 -3.83495 23.1447 2.67283 19.5293 2.67283C15.914 2.67283 1.45259 -3.65418 1.45259 8.81907C1.45259 13.6999 2.71796 18.0384 4.70641 21.8346C6.33331 24.9078 6.87561 28.5232 6.15254 31.7771C5.42948 35.2117 3.0795 48.0465 6.87561 48.0465C12.2986 48.0465 12.2986 31.7771 19.5293 31.7771C26.76 31.7771 28.5677 48.0465 32.183 48.0465C36.1599 48.0465 33.6292 35.2117 32.9061 31.7771C32.183 28.3424 32.7253 24.9077 34.3523 21.8346C36.3407 18.2192 37.6061 13.6999 37.6061 8.81907Z" stroke="#1466CF" stroke-width="2" stroke-linecap="round" stroke-linejoin="round"/>
</svg>
