<svg width="674" height="640" viewBox="0 0 674 640" fill="none" xmlns="http://www.w3.org/2000/svg">
<path fill-rule="evenodd" clip-rule="evenodd" d="M-117.917 860.477L-117.916 860.477C-160.388 858.397 -202.094 850.108 -241.875 835.842C-280.481 821.997 -316.899 802.671 -350.117 778.399C-376.87 758.852 -401.394 736.199 -423.007 711.07C-444.718 685.828 -463.484 658.096 -478.783 628.644C-494.355 598.666 -506.354 566.864 -514.446 534.12C-518.564 517.457 -521.711 500.345 -523.799 483.26C-525.923 465.88 -527 448.129 -527 430.5C-527 415.814 -526.252 401.005 -524.777 386.483C-523.323 372.171 -521.128 357.79 -518.253 343.739C-515.415 329.87 -511.846 315.989 -507.645 302.482C-503.49 289.125 -498.62 275.817 -493.169 262.929C-482.379 237.421 -469.025 212.817 -453.477 189.803C-438.077 167.008 -420.391 145.572 -400.909 126.09C-381.428 106.609 -359.992 88.9228 -337.196 73.5225C-314.181 57.9739 -289.578 44.6196 -264.07 33.8306C-251.18 28.3784 -237.872 23.5078 -224.517 19.3545C-211.011 15.1531 -197.13 11.584 -183.261 8.74634C-169.208 5.87061 -154.826 3.67554 -140.516 2.22241C-125.994 0.747562 -111.184 -0.000488281 -96.4998 -0.000488281C-77.8195 -0.000488281 -59.02 1.20874 -40.6235 3.59326C-22.556 5.93457 -4.48352 9.46094 13.0919 14.0737C47.6183 23.1355 80.9794 36.5373 112.248 53.907C142.985 70.9812 171.63 91.8447 197.387 115.918C223.09 139.94 245.813 167.059 264.927 196.524C257.844 196.177 250.635 196 243.5 196C6.12122 196 -187 389.121 -187 626.5C-187 709.908 -163.111 790.816 -117.915 860.477L-117.916 860.475L-117.916 860.476C-117.915 860.477 -117.915 860.477 -117.915 860.477C-117.915 860.477 -117.915 860.477 -117.915 860.477L-117.917 860.477ZM243.5 1057C197.076 1057 151.407 1049.65 107.761 1035.17C65.5585 1021.16 25.8986 1000.72 -10.1166 974.4C-31.2857 958.932 -51.1631 941.429 -69.1964 922.376C-87.2527 903.298 -103.644 882.472 -117.915 860.477H-117.915C-110.832 860.824 -103.628 861 -96.4998 861C140.878 861 334 667.878 334 430.5C334 347.09 310.115 266.183 264.927 196.524C279.01 197.214 293.186 198.606 307.063 200.66C320.758 202.686 334.501 205.408 347.91 208.748C361.158 212.048 374.401 216.033 387.272 220.592C400.008 225.103 412.685 230.284 424.951 235.993C449.253 247.304 472.643 260.993 494.471 276.681C516.126 292.245 536.455 309.926 554.891 329.233C573.349 348.561 590.084 369.703 604.633 392.069C619.329 414.662 631.941 438.732 642.118 463.612C647.261 476.185 651.854 489.153 655.771 502.155C659.73 515.3 663.093 528.801 665.766 542.282C668.474 555.934 670.541 569.902 671.909 583.796C673.297 597.888 674 612.255 674 626.5C674 641.185 673.252 655.995 671.778 670.516C670.324 684.827 668.129 699.209 665.254 713.26C662.416 727.129 658.847 741.01 654.646 754.517C650.491 767.874 645.621 781.182 640.169 794.07C629.38 819.579 616.026 844.182 600.477 867.196C585.078 889.991 567.391 911.427 547.91 930.909C528.429 950.39 506.992 968.076 484.196 983.477C461.183 999.024 436.58 1012.38 411.07 1023.17C398.182 1028.62 384.874 1033.49 371.517 1037.65C358.011 1041.85 344.13 1045.42 330.26 1048.25C316.21 1051.13 301.829 1053.32 287.516 1054.78C272.992 1056.25 258.183 1057 243.5 1057Z" fill="#F1E8FF"/>
</svg>
