<svg width="851" height="765" viewBox="0 0 851 765" fill="none" xmlns="http://www.w3.org/2000/svg">
<path fill-rule="evenodd" clip-rule="evenodd" d="M409.083 568.477L409.084 568.477C366.612 566.397 324.906 558.108 285.125 543.842C246.519 529.997 210.101 510.671 176.883 486.4C150.13 466.853 125.607 444.2 103.993 419.071C82.2821 393.828 63.5166 366.096 48.2175 336.644C32.6453 306.666 20.6464 274.864 12.5544 242.121C8.43625 225.458 5.28948 208.345 3.20148 191.26C1.07749 173.88 0.000549316 156.129 0.000549316 138.5C0.000549316 123.815 0.748379 109.006 2.22316 94.4836C3.67671 80.1711 5.87163 65.7898 8.74686 51.739C11.5847 37.8699 15.1538 23.989 19.355 10.4822C23.5096 -2.875 28.3802 -16.1824 33.8313 -29.0703C44.6207 -54.5791 57.975 -79.1824 73.5232 -102.197C88.923 -124.992 106.609 -146.428 126.091 -165.91C145.572 -185.391 167.008 -203.077 189.804 -218.477C212.819 -234.026 237.422 -247.38 262.93 -258.169C275.82 -263.621 289.128 -268.492 302.483 -272.645C315.989 -276.847 329.87 -280.416 343.739 -283.253C357.792 -286.129 372.174 -288.324 386.484 -289.777C401.006 -291.252 415.816 -292 430.5 -292C449.181 -292 467.98 -290.791 486.377 -288.406C504.444 -286.065 522.517 -282.539 540.092 -277.926C574.618 -268.864 607.979 -255.462 639.248 -238.093C669.985 -221.019 698.63 -200.155 724.387 -176.082C750.09 -152.06 772.813 -124.94 791.927 -95.4754C784.844 -95.8228 777.635 -95.9998 770.5 -95.9998C533.121 -95.9998 340 97.1216 340 334.5C340 417.908 363.889 498.816 409.085 568.477L409.084 568.476L409.084 568.476C409.085 568.477 409.085 568.477 409.085 568.477C409.085 568.477 409.085 568.477 409.085 568.477L409.083 568.477ZM770.5 765C724.076 765 678.407 757.655 634.761 743.168C592.559 729.161 552.899 708.716 516.883 682.4C495.714 666.932 475.837 649.429 457.804 630.376C439.747 611.299 423.356 590.473 409.085 568.477H409.085C416.168 568.824 423.372 569 430.5 569C667.879 569 861 375.879 861 138.5C861 55.0906 837.115 -25.8167 791.927 -95.4753C806.01 -94.7854 820.186 -93.3935 834.063 -91.3401C847.758 -89.3135 861.501 -86.592 874.91 -83.252C888.158 -79.9519 901.401 -75.967 914.272 -71.4082C927.008 -66.8972 939.685 -61.7156 951.951 -56.0071C976.253 -44.6958 999.643 -31.0063 1021.47 -15.3188C1043.13 0.244873 1063.45 17.9258 1081.89 37.2332C1100.35 56.5617 1117.08 77.7031 1131.63 100.069C1146.33 122.662 1158.94 146.733 1169.12 171.612C1174.26 184.185 1178.85 197.153 1182.77 210.155C1186.73 223.301 1190.09 236.801 1192.77 250.282C1195.47 263.935 1197.54 277.902 1198.91 291.796C1200.3 305.888 1201 320.256 1201 334.5C1201 349.186 1200.25 363.995 1198.78 378.516C1197.32 392.828 1195.13 407.209 1192.25 421.26C1189.42 435.13 1185.85 449.01 1181.65 462.518C1177.49 475.875 1172.62 489.182 1167.17 502.07C1156.38 527.579 1143.03 552.183 1127.48 575.197C1112.08 597.991 1094.39 619.427 1074.91 638.909C1055.43 658.39 1033.99 676.077 1011.2 691.477C988.183 707.025 963.58 720.379 938.07 731.169C925.182 736.62 911.874 741.491 898.517 745.646C885.011 749.846 871.13 753.416 857.26 756.254C843.21 759.129 828.829 761.324 814.516 762.777C799.992 764.252 785.183 765 770.5 765Z" fill="#E8F3FF"/>
</svg>
