<svg width="203" height="274" viewBox="0 0 203 274" fill="none" xmlns="http://www.w3.org/2000/svg">
<path fill-rule="evenodd" clip-rule="evenodd" d="M82.6005 1.44019C82.6005 0.81983 82.946 0.27906 83.455 0H85.0253C85.5341 0.27905 85.8801 0.81982 85.8801 1.44019C85.8801 2.34449 85.1439 3.07984 84.2402 3.07984C83.3358 3.07984 82.6005 2.34449 82.6005 1.44019ZM105.88 1.44019C105.88 0.81983 106.225 0.27906 106.734 0H108.305C108.813 0.27905 109.159 0.81982 109.159 1.44019C109.159 2.34449 108.423 3.07984 107.52 3.07984C106.615 3.07984 105.88 2.34449 105.88 1.44019ZM129.161 1.44019C129.161 0.81983 129.507 0.27906 130.016 0H131.586C132.095 0.27905 132.441 0.81982 132.441 1.44019C132.441 2.34449 131.704 3.07984 130.801 3.07984C129.896 3.07984 129.161 2.34449 129.161 1.44019ZM152.44 1.44019C152.44 0.81983 152.786 0.27906 153.295 0H154.865C155.374 0.27905 155.72 0.81982 155.72 1.44019C155.72 2.34449 154.984 3.07984 154.08 3.07984C153.176 3.07984 152.44 2.34449 152.44 1.44019ZM175.72 1.44019C175.72 0.81983 176.065 0.27906 176.574 0H178.145C178.653 0.27905 179 0.81982 179 1.44019C179 2.34449 178.263 3.07984 177.36 3.07984C176.455 3.07984 175.72 2.34449 175.72 1.44019ZM199.001 1.44019C199.001 0.81983 199.347 0.27906 199.855 0H201.426C201.935 0.27905 202.281 0.81982 202.281 1.44019C202.281 2.34449 201.544 3.07984 200.641 3.07984C199.736 3.07984 199.001 2.34449 199.001 1.44019ZM129.161 24.7205C129.161 23.8159 129.896 23.0796 130.801 23.0796C131.704 23.0796 132.441 23.8159 132.441 24.7205C132.441 25.624 131.704 26.3594 130.801 26.3594C129.896 26.3594 129.161 25.624 129.161 24.7205ZM152.44 24.7205C152.44 23.8159 153.176 23.0796 154.08 23.0796C154.984 23.0796 155.72 23.8159 155.72 24.7205C155.72 25.624 154.984 26.3594 154.08 26.3594C153.176 26.3594 152.44 25.624 152.44 24.7205ZM175.72 24.7205C175.72 23.8159 176.455 23.0796 177.36 23.0796C178.263 23.0796 179 23.8159 179 24.7205C179 25.624 178.263 26.3594 177.36 26.3594C176.455 26.3594 175.72 25.624 175.72 24.7205ZM199.001 24.7205C199.001 23.8159 199.736 23.0796 200.641 23.0796C201.544 23.0796 202.281 23.8159 202.281 24.7205C202.281 25.624 201.544 26.3594 200.641 26.3594C199.736 26.3594 199.001 25.624 199.001 24.7205ZM152.44 48.0007C152.44 47.0952 153.176 46.3599 154.08 46.3599C154.984 46.3599 155.72 47.0952 155.72 48.0007C155.72 48.9043 154.984 49.6404 154.08 49.6404C153.176 49.6404 152.44 48.9043 152.44 48.0007ZM175.72 48.0007C175.72 47.0952 176.455 46.3599 177.36 46.3599C178.263 46.3599 179 47.0952 179 48.0007C179 48.9043 178.263 49.6404 177.36 49.6404C176.455 49.6404 175.72 48.9043 175.72 48.0007ZM199.001 48.0007C199.001 47.0952 199.736 46.3599 200.641 46.3599C201.544 46.3599 202.281 47.0952 202.281 48.0007C202.281 48.9043 201.544 49.6404 200.641 49.6404C199.736 49.6404 199.001 48.9043 199.001 48.0007ZM175.72 71.2793C175.72 70.3755 176.455 69.6404 177.36 69.6404C178.263 69.6404 179 70.3755 179 71.2793C179 72.1846 178.263 72.9207 177.36 72.9207C176.455 72.9207 175.72 72.1846 175.72 71.2793ZM199.001 71.2793C199.001 70.3755 199.736 69.6404 200.641 69.6404C201.544 69.6404 202.281 70.3755 202.281 71.2793C202.281 72.1846 201.544 72.9207 200.641 72.9207C199.736 72.9207 199.001 72.1846 199.001 71.2793ZM199.001 94.5596C199.001 93.6558 199.736 92.9206 200.641 92.9206C201.544 92.9206 202.281 93.6558 202.281 94.5596C202.281 95.4639 201.544 96.1992 200.641 96.1992C199.736 96.1992 199.001 95.4639 199.001 94.5596ZM82.6005 24.7205C82.6005 25.624 83.3358 26.3594 84.2402 26.3594C85.1439 26.3594 85.8801 25.624 85.8801 24.7205C85.8801 23.8159 85.1439 23.0796 84.2402 23.0796C83.3358 23.0796 82.6005 23.8159 82.6005 24.7205ZM105.88 24.7205C105.88 25.624 106.615 26.3594 107.52 26.3594C108.423 26.3594 109.159 25.624 109.159 24.7205C109.159 23.8159 108.423 23.0796 107.52 23.0796C106.615 23.0796 105.88 23.8159 105.88 24.7205ZM82.6005 48.0007C82.6005 48.9043 83.3358 49.6404 84.2402 49.6404C85.1439 49.6404 85.8801 48.9043 85.8801 48.0007C85.8801 47.0952 85.1439 46.3599 84.2402 46.3599C83.3358 46.3599 82.6005 47.0952 82.6005 48.0007ZM105.88 48.0007C105.88 48.9043 106.615 49.6404 107.52 49.6404C108.423 49.6404 109.159 48.9043 109.159 48.0007C109.159 47.0952 108.423 46.3599 107.52 46.3599C106.615 46.3599 105.88 47.0952 105.88 48.0007ZM129.161 48.0007C129.161 48.9043 129.896 49.6404 130.801 49.6404C131.704 49.6404 132.441 48.9043 132.441 48.0007C132.441 47.0952 131.704 46.3599 130.801 46.3599C129.896 46.3599 129.161 47.0952 129.161 48.0007ZM82.6005 71.2793C82.6005 72.1846 83.3358 72.9207 84.2402 72.9207C85.1439 72.9207 85.8801 72.1846 85.8801 71.2793C85.8801 70.3755 85.1439 69.6404 84.2402 69.6404C83.3358 69.6404 82.6005 70.3755 82.6005 71.2793ZM105.88 71.2793C105.88 72.1846 106.615 72.9207 107.52 72.9207C108.423 72.9207 109.159 72.1846 109.159 71.2793C109.159 70.3755 108.423 69.6404 107.52 69.6404C106.615 69.6404 105.88 70.3755 105.88 71.2793ZM129.161 71.2793C129.161 72.1846 129.896 72.9207 130.801 72.9207C131.704 72.9207 132.441 72.1846 132.441 71.2793C132.441 70.3755 131.704 69.6404 130.801 69.6404C129.896 69.6404 129.161 70.3755 129.161 71.2793ZM152.44 71.2793C152.44 72.1846 153.176 72.9207 154.08 72.9207C154.984 72.9207 155.72 72.1846 155.72 71.2793C155.72 70.3755 154.984 69.6404 154.08 69.6404C153.176 69.6404 152.44 70.3755 152.44 71.2793ZM82.6005 94.5596C82.6005 95.4639 83.3358 96.1992 84.2402 96.1992C85.1439 96.1992 85.8801 95.4639 85.8801 94.5596C85.8801 93.6558 85.1439 92.9206 84.2402 92.9206C83.3358 92.9206 82.6005 93.6558 82.6005 94.5596ZM105.88 94.5596C105.88 95.4639 106.615 96.1992 107.52 96.1992C108.423 96.1992 109.159 95.4639 109.159 94.5596C109.159 93.6558 108.423 92.9206 107.52 92.9206C106.615 92.9206 105.88 93.6558 105.88 94.5596ZM129.161 94.5596C129.161 95.4639 129.896 96.1992 130.801 96.1992C131.704 96.1992 132.441 95.4639 132.441 94.5596C132.441 93.6558 131.704 92.9206 130.801 92.9206C129.896 92.9206 129.161 93.6558 129.161 94.5596ZM152.44 94.5596C152.44 95.4639 153.176 96.1992 154.08 96.1992C154.984 96.1992 155.72 95.4639 155.72 94.5596C155.72 93.6558 154.984 92.9206 154.08 92.9206C153.176 92.9206 152.44 93.6558 152.44 94.5596ZM26.9985 271.328C18.5547 269.601 10.2504 267.023 2.31421 263.667C1.53992 263.339 0.768855 263.004 0.000305176 262.661V22.3393C0.768855 21.9963 1.53992 21.6611 2.31421 21.3337C10.2513 17.9765 18.5565 15.3992 26.9985 13.6719C35.661 11.8989 44.5782 10.9997 53.4999 10.9997C67.0908 10.9997 80.4882 13.0654 93.3204 17.1369C105.737 21.0771 117.485 26.8472 128.237 34.2864C138.845 41.6277 148.307 50.4675 156.358 60.56C164.477 70.7392 171.016 82.0127 175.795 94.0681C175.745 94.2265 175.72 94.3921 175.72 94.5596C175.72 95.1409 176.031 95.6836 176.533 95.977C176.296 95.3496 176.047 94.707 175.795 94.0691C176.01 93.3813 176.639 92.9206 177.36 92.9206C178.263 92.9206 179 93.6558 179 94.5596C179 95.4639 178.263 96.1992 177.36 96.1992C177.068 96.1992 176.783 96.1228 176.533 95.977C182.152 110.828 185.001 126.48 185.001 142.501C185.001 151.422 184.102 160.339 182.329 169.002C180.601 177.445 178.023 185.75 174.666 193.686C171.371 201.478 167.291 208.993 162.542 216.023C157.838 222.987 152.435 229.534 146.484 235.485C140.533 241.436 133.985 246.839 127.023 251.542C119.994 256.291 112.478 260.37 104.686 263.667C96.7494 267.023 88.4442 269.601 80.0012 271.328C71.3379 273.102 62.4216 274 53.4999 274C44.5782 274 35.6619 273.102 26.9985 271.328L26.9985 271.328Z" fill="#FFE8E8"/>
</svg>
