<svg width="38" height="38" viewBox="0 0 38 38" fill="none" xmlns="http://www.w3.org/2000/svg">
<path fill-rule="evenodd" clip-rule="evenodd" d="M12.0004 11.9995V26.9998H26.9998V11.9995H26.9988H12.0004ZM19.5 37.9998C15.3646 37.9998 12.0004 34.6355 12.0004 30.5V27.0007H11.9994L7.50037 26.9998C3.36451 26.9998 -0.000244141 23.6355 -0.000244141 19.5002C-0.000244141 15.3643 3.36451 11.9995 7.50037 11.9995H12.0004V7.49952C12.0004 3.36402 15.3646 -0.000244141 19.5 -0.000244141C23.6354 -0.000244141 26.9998 3.36402 26.9998 7.49952V11.9985V11.9995H30.4999C34.6356 11.9995 38.0004 15.3643 38.0004 19.5002C38.0004 23.6355 34.6356 26.9998 30.4999 26.9998H26.9998V30.5C26.9998 34.6355 23.6354 37.9998 19.5 37.9998V37.9998Z" fill="#3D5A80"/>
</svg>
