<svg width="55" height="61" viewBox="0 0 55 61" fill="none" xmlns="http://www.w3.org/2000/svg">
<path fill-rule="evenodd" clip-rule="evenodd" d="M51.9493 30.1265C51.2732 30.4713 48.873 31.5464 47.3111 30.7283C46.7432 30.4308 46.635 29.9102 46.5065 29.092C46.3781 28.2739 46.2023 27.1245 44.9447 26.7324L44.539 28.0305C44.9312 28.1522 45.0258 28.4092 45.161 29.3016C45.2963 30.1941 45.4721 31.33 46.6756 31.9318C47.3035 32.2497 48.0003 32.4077 48.7039 32.3915C49.6811 32.3685 50.6458 32.1669 51.5504 31.7966L51.6789 31.7492C51.7668 44.3792 46.7161 46.7457 45.756 47.0837C44.9109 46.6172 42.5241 44.7646 44.0454 39.6464C44.0454 39.6464 44.681 37.5031 46.0738 36.8743L45.5194 35.637C44.4203 36.2146 43.5588 37.1598 43.0853 38.3077C39.0827 39.7478 34.6879 36.2793 34.6473 36.2184L33.8359 37.2056C34.005 37.3408 37.2571 39.9574 41.0299 39.9574C41.5566 39.9572 42.082 39.9052 42.5985 39.8019C42.0727 41.5458 42.0727 43.4061 42.5985 45.15C40.8338 45.8262 38.1631 46.5023 37.0949 45.7653L36.3173 46.8742C36.9765 47.2854 37.7454 47.4859 38.5215 47.4489C40.12 47.3647 41.6918 47.0033 43.1665 46.3806H43.2003C43.6796 47.1017 44.3093 47.7106 45.0461 48.1656C44.539 51.0864 43.3964 53.223 41.6655 54.5144C40.2871 55.4892 38.618 55.9661 36.9326 55.8666L35.1882 53.0945L34.0117 53.7706L35.6412 56.5968C35.2702 57.8164 34.3756 58.8076 33.2004 59.3014C30.861 60.1465 27.9739 58.4359 27.9469 58.4224L27.8049 58.3412V58.2601C29.9753 50.7416 27.6562 48.2264 26.6555 47.0162C28.2512 45.1027 30.0835 41.3435 27.7441 37.9899C26.1539 35.7679 25.6728 32.9385 26.4391 30.3159C26.8042 29.7412 28.6298 26.5296 27.3316 21.3504C27.6764 21.4383 28.0889 21.5262 28.481 21.5803C30.1984 22.1145 32.2673 23.0475 32.8353 24.4268C33.1733 25.2382 32.957 26.1577 32.1591 27.2327C30.7122 29.2611 30.9759 30.5728 31.483 31.33C32.1591 32.3983 33.5587 32.8243 34.9448 32.8243C35.3551 32.825 35.7647 32.7888 36.1686 32.7161C38.1969 32.351 39.6168 31.1948 39.9211 29.7141L38.5688 29.4437C38.3389 30.5593 37.0408 31.1813 35.8981 31.3841C34.4444 31.6478 33.0584 31.3233 32.6054 30.6066C32.1524 29.8899 32.8082 28.6594 33.2815 28.0238C34.3363 26.5566 34.6338 25.1705 34.0861 23.9062C33.601 22.8893 32.8023 22.0551 31.8075 21.5262C34.1395 21.1765 36.0849 19.5619 36.8582 17.3343L35.5871 16.8542C34.2348 20.4039 30.8542 20.5256 28.6703 20.201C28.0741 20.0261 27.4693 19.8817 26.8583 19.7683C25.8509 16.5973 26.1011 14.6974 26.4797 13.6832L26.5608 13.5142C27.1163 12.7099 27.5705 11.8401 27.9131 10.9246C29.3396 12.3879 31.2793 13.239 33.3221 13.2978C35.2124 13.2389 37.0228 12.5214 38.4403 11.2694L37.5005 10.289C37.3247 10.4581 32.9975 14.2173 28.2917 9.42361C28.755 7.3749 28.6165 5.23594 27.8928 3.26411L27.8319 3.1086L28.0213 2.99366C29.8536 1.83073 31.4019 1.47914 32.531 1.93891C34.0455 2.54066 34.5594 4.4 34.5594 4.41353L34.7014 4.995L35.2964 4.92739C39.9211 4.40001 41.9494 6.15117 44.2347 8.17955C44.6134 8.51085 44.9988 8.85567 45.3909 9.18021C46.568 10.0897 47.3674 11.402 47.6356 12.8651C45.8912 12.3715 42.9907 12.0199 41.5505 14.2173L42.6864 14.9611C43.6938 13.4263 46.3848 13.8928 47.7844 14.2849L48.0346 14.3864C49.7249 15.2586 50.6647 16.2728 50.827 17.4019C51.0704 19.0787 49.5423 20.5797 49.5288 20.5932L48.8527 21.2355L49.664 21.6818C51.0574 22.3583 52.1077 23.5824 52.5646 25.0624C53.1663 27.1313 52.3415 29.2746 51.9493 30.1266L51.9493 30.1265ZM26.1213 58.1316V58.1925L25.9658 58.2601C24.2485 59.0038 22.7948 59.112 21.6522 58.5779C20.7646 58.0738 20.104 57.2487 19.8063 56.2723L21.3614 53.8991L20.2255 53.1553L18.6637 55.5421L18.5284 55.7111C14.1269 56.137 12.1796 54.4265 9.93489 52.4454C9.55626 52.1141 9.17087 51.7693 8.77872 51.4447C7.57612 50.513 6.77154 49.16 6.52722 47.6584H6.56779C7.39553 47.9177 8.25626 48.0566 9.12354 48.0709C10.5008 48.1662 11.8264 47.5291 12.6124 46.3941L11.4765 45.6503C10.1242 47.6787 6.33115 46.198 5.47923 45.8329C4.20135 45.0486 3.45085 44.1561 3.33591 43.1892C3.0925 41.5124 4.62055 40.0115 4.63407 39.9979L5.3102 39.3556L4.49885 38.9094C3.10549 38.2329 2.05517 37.0087 1.59827 35.5287C1.0168 33.5004 1.83491 31.3503 2.22707 30.4916L2.32173 30.4375C3.54552 29.8493 5.91872 29.0853 6.73683 29.7614C7.87948 30.7688 9.44133 32.0197 10.584 32.2428L10.8477 30.8905C10.6178 30.8432 9.69826 30.5525 7.62931 28.7269C6.34467 27.5978 4.04584 28.2401 2.65303 28.7945L2.49752 28.8621C2.3961 16.2727 7.41295 13.8589 8.40685 13.5073L8.58264 13.602C9.46837 14.1091 11.6252 15.9211 10.131 20.9718C10.131 20.9718 9.49541 23.1151 8.10259 23.7439L8.59616 25.0353C9.69409 24.4593 10.5554 23.5167 11.0302 22.3714C15.0396 20.9177 19.4209 24.3997 19.4615 24.4538L20.3134 23.4261C20.1241 23.2706 15.9592 19.9238 11.5711 20.8298C12.9234 15.6101 10.6178 13.3924 9.36694 12.5878L9.17086 12.4594C9.67795 9.53851 10.8206 7.40872 12.5515 6.11732C14.025 5.06214 15.833 4.58129 17.636 4.76507L18.1971 4.85296L18.3864 4.31882C18.9273 2.77049 19.7387 1.81716 20.807 1.49938C22.9706 0.823246 25.6075 2.85163 25.6345 2.85163C25.7503 2.95558 25.8525 3.07371 25.9388 3.20321C27.4602 5.86124 27.4884 9.11958 26.0131 11.8035C25.8878 12.0318 25.7307 12.2413 25.5466 12.4256C23.656 11.8604 21.649 11.8091 19.7319 12.2768V12.2227C18.9341 10.8705 17.0274 10.4377 15.8172 10.4377V11.79C15.8172 11.79 17.6765 11.79 18.4338 12.7298C17.2397 13.3063 16.2115 14.1764 15.4453 15.2585L16.5474 16.0563C19.1843 12.4188 23.4236 13.1828 25.0328 13.6426V13.6764C24.6609 15.0286 24.573 17.226 25.648 20.4376C27.5479 26.1306 25.3438 29.4301 25.2491 29.5586L25.168 29.7141C24.2148 32.7718 24.7477 36.0994 26.6081 38.7065C28.8258 41.8911 26.2701 45.2988 25.452 46.2453L25.3776 46.3129C25.3235 46.3129 25.1004 46.2521 24.7488 46.1912C22.9908 45.8126 19.7387 44.7646 18.9949 42.9796C18.6569 42.1683 18.8732 41.2488 19.6711 40.1737C21.1247 38.1454 20.8543 36.8337 20.3472 36.0764C19.4682 34.6904 17.3587 34.3793 15.6616 34.7242C13.6333 35.0893 12.2134 36.2454 11.9092 37.7261L13.2614 37.9966C13.4913 36.881 14.7894 36.259 15.9321 36.0561C17.3858 35.7924 18.7718 36.117 19.2248 36.8337C19.6778 37.5503 19.022 38.7809 18.5487 39.4165C17.494 40.8836 17.1965 42.2697 17.7441 43.5341C18.3236 44.6823 19.2777 45.5983 20.4486 46.1304C18.2445 46.4346 15.9389 47.4353 14.972 50.0925L16.2499 50.5522C17.6427 46.7118 23.2613 47.1716 24.8502 47.4691L25.3302 47.5638C25.3302 47.5638 28.5959 49.484 26.1213 58.1316L26.1213 58.1316ZM53.8966 24.7107C53.4349 23.161 52.4225 21.8336 51.0501 20.9785C51.9004 19.9405 52.3083 18.6096 52.186 17.2734C51.9696 15.7791 50.9149 14.4945 49.042 13.4397C48.9298 11.3495 47.9128 9.41185 46.2564 8.13217C45.871 7.81439 45.4991 7.45605 45.1272 7.15855C42.8757 5.1775 40.5499 3.1018 35.6615 3.54804C35.2171 2.2874 34.2837 1.25891 33.0719 0.694786C31.5303 0.0727458 29.6913 0.424336 27.5209 1.73602L26.3106 1.62784C25.6345 1.14779 22.93 -0.562814 20.4351 0.187686C19.0829 0.600126 18.0078 1.6684 17.3047 3.36548C15.3322 3.26966 13.3854 3.84394 11.7807 4.99494C9.70501 6.51622 8.40009 8.97732 7.81186 12.3174C6.15535 12.9326 0.827492 15.9752 1.11822 29.6059C0.746352 30.3226 -0.538288 33.0947 0.252782 35.9006C0.707082 37.4628 1.72027 38.8033 3.09927 39.6666C2.24898 40.7047 1.84099 42.0355 1.96338 43.3718C2.17974 44.866 3.2345 46.1507 5.10736 47.2054C5.22556 49.2849 6.2392 51.2111 7.88624 52.486C8.27163 52.8038 8.6435 53.1621 9.01537 53.4596C11.2669 55.4474 13.5995 57.5163 18.4811 57.0701C18.9915 58.2443 19.8986 59.2017 21.0436 59.7746C22.5176 60.4507 24.3026 60.3966 26.3377 59.5447L27.3789 59.6191C28.7219 60.3777 30.2259 60.8064 31.767 60.8699C34.0733 60.913 36.1358 59.441 36.8447 57.2459C38.8172 57.3428 40.7644 56.7684 42.3686 55.6164C44.4443 54.0952 45.7492 51.6341 46.3375 48.294C47.994 47.6787 53.3218 44.6362 53.0311 31.0055C53.403 30.2888 54.6809 27.5167 53.8966 24.7107H53.8966Z" fill="#1466CF"/>
</svg>
