<svg width="63" height="55" viewBox="0 0 63 55" fill="none" xmlns="http://www.w3.org/2000/svg">
<path fill-rule="evenodd" clip-rule="evenodd" d="M60.3997 48.072C58.8224 51.2126 55.7235 52.8871 51.1377 52.9566C35.9697 53.2832 34.851 42.4231 34.8441 42.3119C33.9512 34.4507 33.7861 26.5238 34.3507 18.6323V18.5003L40.0622 24.5453C40.0622 25.1567 40.0622 27.3246 38.2904 27.54L38.4641 28.9296C40.2845 28.7003 41.0628 27.2412 41.3337 25.9071L41.7715 26.3727C42.428 27.5281 42.9324 28.7635 43.2723 30.0483V30.1108C44.1547 35.3567 39.4994 37.1146 39.2979 37.1911L39.7704 38.4973C41.4525 37.7943 42.8701 36.5786 43.8212 35.0232L43.8212 35.0857C43.753 37.1538 43.388 39.2013 42.7373 41.1655C42.6678 41.3878 41.1461 46.3836 42.7998 49.142L43.9879 48.4472C42.8762 46.592 43.6614 42.8886 44.0574 41.6032C44.3639 40.6552 44.6144 39.6901 44.8078 38.7127C44.9816 38.8934 45.2247 39.1157 45.4471 39.3311C47.0591 41.2141 49.5604 44.5909 49.7689 47.669L51.1585 47.5717C50.928 45.609 50.2479 43.7259 49.1713 42.0687C50.8942 43.0424 52.9179 43.3397 54.848 42.9025L54.5006 41.5615C51.3183 42.3814 48.1777 40.0121 46.4615 38.3653C45.8153 37.6219 45.2803 37.1077 45.0719 36.927C45.4426 34.0376 45.1332 31.1016 44.1686 28.3529H44.2311C45.718 28.2834 48.6849 28.5127 50.0051 31.2642L51.2558 30.6667C50.6747 29.4661 49.7153 28.4896 48.5251 27.8874L48.5738 27.8457C49.7133 26.9355 52.4648 27.4844 53.4375 27.7901L53.8475 26.463C53.3194 26.2962 48.817 24.983 47.1772 27.2898V27.3385C46.049 27.0171 44.8705 26.9111 43.7031 27.0258H43.6197C43.4251 26.6159 43.2375 26.2476 43.0569 25.9349L43.0082 25.789C42.5149 24.3994 40.9238 21.7799 39.1867 19.1951H39.2423C40.9839 18.6568 42.7974 18.3874 44.6202 18.3961L44.6967 18.4656C45.4262 19.1048 47.1077 20.8836 46.6213 21.9397L47.8859 22.5164C48.5043 21.1268 47.6497 19.6676 46.795 18.6254L46.7464 18.5698C48.5334 18.8094 50.2307 19.4979 51.6796 20.5709L52.5829 19.5148C50.6 18.0415 48.2266 17.1859 45.7597 17.0551V16.9787C45.729 15.4915 46.3061 14.0561 47.3578 13.0043L46.5032 11.8925C45.1503 13.197 44.3961 15.0022 44.4187 16.8814V16.9578C43.5933 16.961 42.7691 17.0214 41.9521 17.1385H41.9035L42.0772 16.8675C43.8976 13.8242 42.2995 9.03683 42.237 8.83533L40.9238 9.28002C41.146 9.98633 41.3133 10.7088 41.424 11.4409H41.3129C40.5416 11.4409 39.0338 11.3853 38.478 10.2597L37.2342 10.8781C38.075 12.5596 39.9371 12.8306 41.0697 12.8306H41.4588H41.5282C41.6177 13.9857 41.3767 15.1424 40.8334 16.1657C40.2807 17.0677 39.3472 17.6688 38.2973 17.7986H38.2626C36.9771 15.8947 35.7404 14.1438 35.0108 13.1224V13.0321C35.371 10.8504 35.9054 8.7012 36.6089 6.60495C36.6089 6.55631 38.068 1.97048 40.9029 1.49105C41.0567 1.4643 41.2124 1.45035 41.3684 1.44936C43.1124 1.44936 45.1622 2.99882 47.33 5.96572C53.3333 14.0396 65.5135 37.7122 60.3927 48.072L60.3997 48.072ZM28.6115 42.3119C28.6115 42.4231 27.479 53.2832 12.3179 52.9566C7.72511 52.8593 4.6123 51.2195 3.05589 48.0928C-2.06496 37.7122 10.1153 14.0395 16.056 5.91705C18.2308 2.95015 20.2736 1.4007 22.0176 1.4007C22.1737 1.4017 22.3294 1.41564 22.4832 1.44239C25.325 1.92182 26.7633 6.50765 26.7772 6.55629C27.4807 8.65255 28.0151 10.8018 28.3753 12.9834V13.0737C27.6457 14.0951 26.4089 15.853 25.1235 17.7499H25.0888C24.0389 17.6201 23.1053 17.0191 22.5526 16.117C22.0094 15.0937 21.7684 13.937 21.8578 12.7819H21.9968H22.3859C23.5254 12.7819 25.3875 12.504 26.2213 10.8294L24.9776 10.2111C24.4148 11.3367 22.8931 11.427 22.1427 11.3923H22.0593C22.1701 10.6601 22.3373 9.93767 22.5596 9.23136L21.2464 8.78668C21.1769 8.98818 19.5858 13.7755 21.4062 16.8188L21.5799 17.0898H21.5313C20.7142 16.9728 19.89 16.9124 19.0646 16.9092V16.8327C19.0873 14.9535 18.333 13.1484 16.9802 11.8439L16.0977 12.9139C17.1495 13.9658 17.7266 15.4012 17.6958 16.8883V16.9647C15.229 17.0956 12.8556 17.9511 10.8727 19.4244L11.7759 20.4806C13.2249 19.4075 14.9221 18.7191 16.7092 18.4795L16.6606 18.5351C15.8059 19.5773 14.9513 21.0642 15.5697 22.4261L16.8343 21.8494C16.3479 20.7793 18.0224 19.0006 18.7589 18.3752L18.8354 18.3058C20.6582 18.297 22.4717 18.5665 24.2133 19.1048H24.2689C22.5596 21.6896 20.9407 24.3229 20.4473 25.6987L20.3987 25.8446C20.2181 26.1573 20.0235 26.5394 19.8359 26.9355H19.7525C18.5851 26.8207 17.4066 26.9268 16.2784 27.2481V27.1995C14.6456 24.8927 10.1431 26.2059 9.60808 26.3727L10.018 27.6998C11.0116 27.3941 13.7631 26.8451 14.8818 27.7554L14.9304 27.7971C13.7403 28.3993 12.7809 29.3757 12.1998 30.5763L13.4505 31.1739C14.7706 28.3946 17.7375 28.1931 19.2244 28.2626H19.2731C18.2905 31.0312 17.9739 33.9924 18.349 36.9062C18.1614 37.0938 17.6541 37.601 16.9593 38.3445C15.2431 39.9912 12.0956 42.3605 8.92021 41.5407L8.5728 42.8817C10.5029 43.3188 12.5266 43.0216 14.2495 42.0479C13.1764 43.7036 12.4988 45.5842 12.2693 47.5439L13.6589 47.6412C13.8743 44.5631 16.3687 41.1793 17.9807 39.3033C18.2031 39.0879 18.4462 38.8656 18.62 38.6849C18.8134 39.6623 19.0639 40.6274 19.3704 41.5754C19.7664 42.8539 20.5516 46.5642 19.4398 48.4194L20.628 49.1142C22.2817 46.3349 20.76 41.353 20.6905 41.1376C20.0398 39.1735 19.6748 37.126 19.6066 35.0579V34.9954C20.5577 36.5508 21.9753 37.7665 23.6574 38.4695L24.1299 37.1633C23.9284 37.0868 19.2661 35.3359 20.1555 30.083V30.0205C20.4954 28.7357 20.9998 27.5003 21.6563 26.3449L22.0941 25.8793C22.365 27.2134 23.1432 28.6586 24.9637 28.9018L25.1374 27.5122C23.4351 27.3245 23.3864 25.1636 23.3864 24.5453L29.084 18.4933V18.6254C29.656 26.5186 29.4978 34.4478 28.6115 42.3119ZM48.5113 5.09715C45.7737 1.35205 43.1542 -0.343323 40.757 0.0805167C37.1301 0.691967 35.4833 5.78502 35.3722 6.14633C35.0803 6.99401 34.8163 7.87644 34.5731 8.78666L34.5384 8.93257V1.78284H28.945V8.91173L28.9103 8.76582C28.6741 7.86255 28.41 6.98012 28.1112 6.12549C28.0001 5.76418 26.3533 0.678067 22.7264 0.0596767C20.3014 -0.350273 17.6819 1.3451 14.9374 5.0902C7.94746 14.6718 -3.46849 38.004 1.80522 48.7182C3.60481 52.366 7.13452 54.2768 12.2832 54.374H12.978C28.7783 54.374 29.9873 42.562 30.0012 42.4856C30.0915 41.7908 31.6548 29.2214 30.3972 17.2357V17.1454L31.641 15.8183H31.8494L33.0931 17.1454V17.2357C31.8077 29.1936 33.3711 41.7699 33.4614 42.4648C33.4614 42.5551 34.6843 54.3532 50.4846 54.3532H51.1794C56.328 54.242 59.8508 52.3382 61.6573 48.6973C66.9172 38.004 55.5012 14.6718 48.5113 5.09715H48.5113Z" fill="#1466CF"/>
</svg>
