<svg width="61" height="68" viewBox="0 0 61 68" fill="none" xmlns="http://www.w3.org/2000/svg">
<path fill-rule="evenodd" clip-rule="evenodd" d="M53.0392 56.6549H50.5429V59.1512C50.5429 60.128 49.6746 60.9963 48.6978 60.9963C47.721 60.9963 46.8527 60.128 46.8527 59.1512V56.6549H44.3564C43.3796 56.6549 42.5113 55.7866 42.5113 54.8098C42.5113 53.833 43.3796 52.9647 44.3564 52.9647H46.8527V50.4684C46.8527 49.4916 47.721 48.6234 48.6978 48.6234H48.8063C49.7831 48.6234 50.6514 49.4916 50.6514 50.4684V52.9647H53.1477C53.6904 52.9647 54.1245 53.1818 54.4501 53.5074C54.7757 53.833 54.9928 54.2671 54.9928 54.8098C54.8842 55.8952 54.016 56.6549 53.0392 56.6549ZM60.7451 51.1197C60.528 49.4916 59.7683 48.0807 58.5744 46.9954C57.8147 46.2356 56.9464 45.5844 56.0781 45.1503C53.1477 43.5223 49.8917 42.1113 46.5271 40.9174C46.31 40.8089 46.093 40.8089 45.8759 40.7004C45.6588 40.5918 45.3332 40.4833 45.1162 40.4833C44.3564 40.2662 43.4882 40.0491 42.7284 39.8321C42.5113 40.1577 42.2943 40.5918 41.9687 40.9174C41.2089 42.0028 40.4492 42.9796 39.798 44.0649C38.6041 45.6929 37.5188 47.2124 36.3249 48.7319C35.6737 49.6002 35.0225 50.3599 34.3713 51.2282L34.2627 51.3367C34.2627 51.3367 34.2627 51.3367 34.2627 51.4453C34.1542 51.6623 34.0457 51.7709 33.8286 51.9879C33.8286 51.6623 33.7201 51.2282 33.7201 50.9026C33.2859 47.7551 32.9603 45.1503 32.9603 44.7161V44.6076C33.0689 44.282 33.1774 43.9564 33.3945 43.7393V43.6308L33.503 43.5223C33.6115 43.4137 33.6115 43.1967 33.7201 43.0881L33.8286 42.9796V42.8711L33.9371 42.7625C34.0457 42.5455 34.1542 42.2199 34.1542 41.8943C34.1542 41.5687 34.0457 41.3516 33.9371 41.1345L33.8286 40.9174C33.8286 40.9174 33.8286 40.9174 33.8286 40.8089C33.8286 40.7004 33.7201 40.7004 33.7201 40.5918C33.6116 40.4833 33.6115 40.3748 33.503 40.3748C33.3945 40.2662 33.1774 40.2662 33.0689 40.2662H32.8518C32.7433 40.2662 32.6347 40.2662 32.6347 40.2662C32.5262 40.2662 32.2006 40.2662 31.875 40.2662C31.6579 40.2662 31.4409 40.2662 31.1153 40.2662C30.6811 40.2662 30.3555 40.2662 30.0299 40.2662C29.9214 40.2662 29.8128 40.2662 29.8128 40.2662C29.7043 40.2662 29.7043 40.2662 29.7043 40.2662H29.5958C29.4872 40.2662 29.3787 40.2662 29.3787 40.2662H29.2702C29.2702 40.2662 29.2702 40.2662 29.1616 40.2662C29.1616 40.2662 29.0531 40.2662 28.9446 40.2662H28.7275C28.6189 40.2662 28.5104 40.2662 28.2934 40.3748C28.1848 40.4833 28.0763 40.4833 28.0763 40.5918C27.9678 40.7004 27.9678 40.8089 27.9678 40.8089V40.9174L27.4251 40.8089C27.3166 41.026 27.208 41.243 27.208 41.5686C27.208 41.8942 27.3166 42.2199 27.4251 42.4369L27.5336 42.5454C27.5336 42.5454 27.5336 42.5454 27.5336 42.654L27.6422 42.7625C27.7507 42.871 27.7507 43.0881 27.8592 43.1967L27.9678 43.3052V43.4137C28.0763 43.7393 28.1848 43.9564 28.4019 44.282V44.3905C28.4019 44.7161 28.0763 47.4295 27.6422 50.577C27.6422 50.9026 27.5336 51.3367 27.5336 51.6623C27.4251 51.4452 27.3166 51.3367 27.0995 51.1196C26.3398 50.2514 25.6886 49.3831 24.9288 48.4063C23.7349 46.8868 22.541 45.3673 21.4557 43.7393C20.4789 42.3284 19.5021 41.0259 18.5253 39.5065C17.4399 39.7235 16.4631 40.0491 15.3778 40.3747C11.7962 41.5686 8.32306 43.0881 5.17557 44.8246C4.19876 45.3673 3.43902 45.91 2.67928 46.6697C1.59394 47.8636 0.725661 49.166 0.508591 50.794C0.508591 51.1196 0.400061 51.3367 0.400061 51.6623V61.2133C1.1598 67.2913 4.9585 67.2913 5.17557 67.2913H56.2952C56.2952 67.2913 56.2952 67.2913 56.4037 67.2913H56.5123C56.9464 67.1827 57.7062 67.0742 58.5744 66.423C58.683 66.3144 58.7915 66.2059 58.9 66.2059L59.0086 66.0974C59.3342 65.7718 59.6598 65.3376 59.8768 64.9035C59.9854 64.795 59.9854 64.6864 59.9854 64.5779C59.9854 64.4694 60.0939 64.3608 60.0939 64.2523C60.4195 63.4926 60.6366 62.6243 60.7451 61.5389V51.9879C60.7451 51.6623 60.7451 51.3367 60.7451 51.1196L60.7451 51.1197Z" fill="#2D3E50"/>
<path fill-rule="evenodd" clip-rule="evenodd" d="M43.7004 15.842V12.3758H41.9673C42.0756 12.9174 42.184 13.459 42.184 14.1089C42.184 14.7589 42.0756 15.3004 41.9673 15.842H43.7004Z" fill="#007BBF"/>
<path fill-rule="evenodd" clip-rule="evenodd" d="M18.0922 12.3758V15.842H29.4844C29.3759 15.3004 29.2674 14.7589 29.2674 14.1089C29.2674 13.459 29.3759 12.9174 29.4844 12.3758H18.0922Z" fill="#007BBF"/>
<path fill-rule="evenodd" clip-rule="evenodd" d="M35.6737 15.6289C34.9139 15.6289 34.1542 14.9777 34.1542 14.1095C34.1542 13.3497 34.8054 12.59 35.6737 12.59C36.5419 12.59 37.1932 13.2412 37.1932 14.1095C37.1932 14.8692 36.542 15.6289 35.6737 15.6289ZM35.6737 9.11688C33.503 9.11688 31.6579 10.5278 30.8982 12.3729C30.6811 12.9156 30.5726 13.4583 30.5726 14.1095C30.5726 14.7607 30.6811 15.3033 30.8982 15.846C31.6579 17.7996 33.503 19.102 35.6737 19.102C37.8444 19.102 39.6894 17.6911 40.4492 15.846C40.6663 15.3033 40.7748 14.7607 40.7748 14.1095C40.7748 13.4583 40.6663 12.9156 40.4492 12.3729C39.6894 10.4193 37.8444 9.11688 35.6737 9.11688Z" fill="#007BBF"/>
<path fill-rule="evenodd" clip-rule="evenodd" d="M16.5733 19.4293C16.5733 19.8635 16.6818 20.2977 16.6818 20.7319C16.6818 20.949 16.7903 21.1661 16.7903 21.3832C17.0074 23.337 17.9841 24.7481 19.3949 25.508C19.5034 25.508 19.5034 25.6165 19.5034 25.6165C20.8057 30.6097 24.8211 34.4089 29.4877 35.1688C30.0303 35.2773 30.5729 35.2773 31.1155 35.2773C34.6969 35.2773 37.9526 33.3234 40.1231 29.8499C40.5572 29.1986 40.8828 28.4388 41.3169 27.5704C41.4254 27.2447 41.5339 26.9191 41.6424 26.5935C41.751 26.1593 41.8595 25.9422 41.968 25.7251C42.185 25.508 42.4021 25.2909 42.7277 25.0738L43.1618 24.7481C44.247 23.6627 44.5726 22.4686 44.6811 21.3832C44.6811 21.1661 44.7896 20.949 44.7896 20.7319C44.8982 20.2977 44.8982 19.8635 44.8982 19.4293C44.8982 19.1036 44.8982 18.778 44.8982 18.4524V18.3438C44.8982 17.9096 44.7896 17.3669 44.6811 16.9327H41.6424C41.5339 17.0412 41.5339 17.1498 41.4254 17.2583C41.8595 17.4754 42.2936 17.584 42.5106 17.584C42.6191 17.6925 42.7277 17.9096 42.7277 18.1267V18.2353V18.4524C42.7277 18.6695 42.7277 18.9951 42.7277 19.2122C42.7277 19.5378 42.6191 19.972 42.6191 20.2977C42.6191 20.5148 42.5106 20.7319 42.5106 21.0575C42.4021 22.0344 42.185 22.5772 41.7509 22.9028C41.6424 23.0114 41.5339 23.1199 41.3168 23.2285L41.2083 23.337C41.0998 23.4456 41.0998 23.5541 41.0998 23.6627C40.8827 24.0969 40.4487 24.9652 40.4487 24.9652C39.7975 26.5935 39.0378 28.2217 37.8441 29.5243C35.8906 32.0209 33.1775 33.2149 30.2473 32.7807C28.9451 32.5636 27.7513 32.1294 26.666 31.3696C24.7126 30.3926 23.0847 28.2217 22.2165 26.2678C22.108 26.0507 21.4569 24.2054 21.1313 23.5541L21.0228 23.4456C21.0228 23.4456 20.9142 23.4456 20.9142 23.337C19.9375 22.7943 19.6119 21.6002 19.6119 20.949C19.6119 20.7319 19.5034 20.5148 19.5034 20.1891C19.3949 19.8635 19.3949 19.4293 19.3949 19.1036C19.3949 18.8865 19.3949 18.5609 19.3949 18.3438V18.1267C19.3949 17.9096 19.5034 17.584 19.5034 17.584C19.6119 17.584 19.7205 17.584 19.7205 17.584C19.829 17.584 19.9375 17.584 20.046 17.584C20.1546 17.584 20.2631 17.584 20.3716 17.584L20.6972 17.4754C20.9142 17.3669 21.0227 17.2583 21.1313 17.0412C21.1313 17.0412 21.1313 16.9327 21.2398 16.9327H17.3329C17.1159 17.3669 17.1159 17.8011 17.1159 18.3438V18.4524C16.5732 18.778 16.5732 19.1036 16.5732 19.4293H16.5733Z" fill="#2D3E50"/>
<path fill-rule="evenodd" clip-rule="evenodd" d="M30.0296 11.1781C31.1148 9.1161 33.2852 7.59675 35.7812 7.59675C38.2772 7.59675 40.4476 9.00758 41.5328 11.1781H43.7033C43.7033 10.8525 43.8118 10.5269 43.8118 10.2013C43.9203 6.29445 41.9669 3.14722 38.4943 1.62787C38.0602 1.41082 37.7346 1.3023 37.409 1.19377C35.1301 0.325572 32.9597 -9.99914e-06 30.6807 -9.99914e-06C30.2466 -9.99914e-06 29.704 -9.99914e-06 29.27 -9.99914e-06C27.8592 0.108511 26.0143 0.217041 24.3865 0.976716C24.1695 1.08524 24.0609 1.19377 23.8439 1.19377C23.1928 1.62787 22.6502 2.06196 22.3246 2.82164H22.2161C21.565 3.25574 21.0223 3.79836 20.5883 4.34099C19.9371 4.66656 19.3945 5.10066 18.9604 5.75182C18.4178 6.62001 18.2008 7.81379 18.0923 9.11609C18.0923 9.87576 18.0923 10.5269 18.0923 11.1781H30.0296L30.0296 11.1781Z" fill="#2D3E50"/>
</svg>
