<svg width="63" height="43" viewBox="0 0 63 43" fill="none" xmlns="http://www.w3.org/2000/svg">
<path fill-rule="evenodd" clip-rule="evenodd" d="M61.7032 41.029H49.2126V38.0891C49.2126 36.8511 48.5737 35.7006 47.5226 35.0461C46.4714 34.3916 45.1571 34.3258 44.0459 34.8721L44.0054 34.8923C43.9154 34.937 43.8304 34.9792 43.7504 35.0121L37.5388 37.5687C36.2775 38.0846 35.4546 39.3133 35.4577 40.676V41.0289H34.0274V32.8785C34.0274 31.6087 32.998 30.5793 31.7281 30.5793C30.4583 30.5793 29.4289 31.6087 29.4289 32.8785V41.029H27.7139V40.676C27.7169 39.3133 26.8939 38.0846 25.6326 37.5688L19.4213 35.0123C19.3416 34.9794 19.2566 34.9372 19.1665 34.8925L19.1257 34.8722C18.0145 34.3259 16.7001 34.3916 15.649 35.0461C14.5979 35.7005 13.9589 36.851 13.9588 38.0892L13.9588 41.029H1.75288V1.29635H61.7034L61.7032 41.029ZM47.9159 41.029H36.7543V40.676C36.7525 39.8392 37.2578 39.0846 38.0324 38.7677L44.244 36.211C44.3661 36.1608 44.476 36.1062 44.5821 36.0536L44.6211 36.0341C44.9336 35.8788 45.2777 35.7979 45.6267 35.7977C46.8904 35.801 47.9138 36.8253 47.9161 38.0891L47.9159 41.029ZM30.7254 41.029V32.8785C30.7254 32.3248 31.1743 31.8758 31.728 31.8758C32.2818 31.8758 32.7307 32.3248 32.7307 32.8785V41.029H30.7254ZM26.4173 41.029H15.2554V38.0891C15.2554 37.2996 15.6626 36.5657 16.3327 36.1477C17.003 35.7297 17.8413 35.6868 18.5505 36.0342L18.5898 36.0536C18.6958 36.1063 18.8053 36.1607 18.9275 36.2111L25.1391 38.7677C25.9137 39.0845 26.4192 39.839 26.4173 40.6759L26.4173 41.029ZM62.3516 -0.000244141H1.10458C0.746539 -0.000244141 0.456299 0.290006 0.456299 0.648056V41.6772C0.456299 42.0353 0.746549 42.3255 1.10458 42.3255H14.605L27.0635 42.3669H27.0657C27.1415 42.3662 27.2167 42.3522 27.2877 42.3255L35.8839 42.3255C35.9549 42.3522 36.03 42.3663 36.1059 42.3669H36.1081L48.5665 42.3255H62.3516C62.7097 42.3255 62.9999 42.0353 62.9999 41.6772V0.648056C62.9999 0.290006 62.7097 -0.000244141 62.3516 -0.000244141Z" fill="#1466CF"/>
<path fill-rule="evenodd" clip-rule="evenodd" d="M30.7254 6.02676C30.7254 5.47302 31.1743 5.02407 31.7281 5.02407C32.2819 5.02407 32.7307 5.47301 32.7307 6.02676V26.9508C32.7307 27.5045 32.2819 27.9534 31.7281 27.9534C31.1743 27.9534 30.7254 27.5045 30.7254 26.9508V6.02676ZM31.7281 29.2501C32.9973 29.2486 34.0259 28.2201 34.0273 26.9508V6.02676C34.0273 4.75692 32.9979 3.72754 31.7281 3.72754C30.4582 3.72754 29.4289 4.75693 29.4289 6.02676V26.9508C29.4303 28.22 30.4588 29.2486 31.7281 29.2501Z" fill="#1466CF"/>
<path fill-rule="evenodd" clip-rule="evenodd" d="M15.8722 20.9843L15.8811 20.9607C16.0126 20.5972 16.4099 20.4049 16.7766 20.5273C19.6857 21.491 22.7013 22.0972 25.7569 22.3326C26.1398 22.361 26.4313 22.6879 26.4158 23.0716L26.4141 23.1061C26.4068 23.3009 26.3198 23.4843 26.1736 23.6133C26.0264 23.7448 25.8317 23.8102 25.635 23.7941C22.4671 23.5494 19.3407 22.9209 16.3243 21.9224C16.1376 21.8613 15.9838 21.7267 15.8985 21.5496C15.8132 21.3726 15.8037 21.1684 15.8723 20.9843L15.8722 20.9843ZM15.9165 23.1534C19.0327 24.1848 22.2626 24.8341 25.5353 25.0869C25.5888 25.091 25.6423 25.0931 25.6953 25.0931C26.7736 25.0918 27.6605 24.2433 27.7095 23.1661L27.7111 23.1317C27.7607 22.0474 26.9388 21.1203 25.8563 21.0397C22.9058 20.8125 19.9938 20.2272 17.1847 19.2965C16.158 18.9523 15.0436 19.4862 14.6684 20.502L14.6559 20.5352C14.4656 21.0491 14.4924 21.6183 14.7301 22.1121C14.9679 22.6058 15.3961 22.9817 15.9166 23.1533L15.9165 23.1534Z" fill="#1466CF"/>
<path fill-rule="evenodd" clip-rule="evenodd" d="M15.8714 27.0407C15.8719 27.0394 15.8806 27.016 15.8811 27.0147C16.0127 26.6512 16.41 26.459 16.7766 26.5814C19.6857 27.5451 22.7013 28.1513 25.7569 28.3865C26.1398 28.415 26.4313 28.7419 26.4158 29.1256L26.4142 29.16C26.4068 29.3549 26.3199 29.5383 26.1736 29.6673C26.0264 29.7988 25.8317 29.8642 25.635 29.8481C22.4671 29.6034 19.3406 28.9749 16.3243 27.9765C16.1366 27.9152 15.9823 27.7797 15.8974 27.6015C15.8123 27.426 15.803 27.2234 15.8715 27.0409L15.8714 27.0407ZM15.9165 29.2074C19.0327 30.2389 22.2626 30.8881 25.5352 31.1409C25.5888 31.145 25.642 31.1471 25.6951 31.1471C26.7736 31.146 27.6607 30.2973 27.7095 29.22L27.7111 29.1858C27.7606 28.1015 26.9387 27.1744 25.8563 27.0937C22.9058 26.8666 19.9938 26.2812 17.1847 25.3506C16.158 25.0064 15.0437 25.5403 14.6685 26.556L14.656 26.5893C14.4657 27.1032 14.4925 27.6724 14.7302 28.1661C14.968 28.6599 15.3962 29.0358 15.9166 29.2074H15.9165Z" fill="#1466CF"/>
<path fill-rule="evenodd" clip-rule="evenodd" d="M15.8811 14.885C16.0132 14.5221 16.41 14.33 16.7766 14.4517C19.6857 15.4154 22.7013 16.0216 25.7569 16.2569C26.1398 16.2853 26.4313 16.6123 26.4158 16.996L26.4141 17.0304C26.4056 17.2263 26.3178 17.4103 26.1708 17.5401C26.0239 17.6699 25.8304 17.7343 25.635 17.7185C22.4671 17.4738 19.3406 16.8453 16.3242 15.8469C16.1368 15.7855 15.9826 15.6501 15.8975 15.4722C15.8124 15.2943 15.8038 15.0894 15.8737 14.9049L15.8811 14.885ZM15.9165 17.0777C19.0327 18.1092 22.2626 18.7584 25.5353 19.0113C25.5888 19.0154 25.6421 19.0174 25.6952 19.0174C26.7736 19.0164 27.6607 18.1676 27.7095 17.0903L27.7111 17.0561C27.7607 15.9718 26.9387 15.0447 25.8563 14.964C22.9057 14.7369 19.9938 14.1515 17.1847 13.2209C16.1579 12.8766 15.0435 13.4105 14.6684 14.4263L14.6559 14.4596C14.4656 14.9735 14.4924 15.5427 14.7301 16.0364C14.9679 16.5302 15.3961 16.906 15.9165 17.0777L15.9165 17.0777Z" fill="#1466CF"/>
<path fill-rule="evenodd" clip-rule="evenodd" d="M15.8714 8.83546C15.8719 8.83412 15.8806 8.81077 15.8811 8.80944C16.0128 8.44607 16.4101 8.25382 16.7768 8.376H16.7766L25.7569 10.1813C26.1399 10.2098 26.4313 10.5367 26.4158 10.9204L26.4142 10.9548C26.4068 11.1497 26.3199 11.333 26.1736 11.462C26.0264 11.5935 25.8317 11.6589 25.635 11.6429C22.4671 11.3982 19.3406 10.7697 16.3242 9.7712C16.1366 9.70998 15.9823 9.57444 15.8974 9.39625C15.8123 9.22076 15.8029 9.01803 15.8715 8.83543L15.8714 8.83546ZM15.9165 11.0022C19.0327 12.0336 22.2626 12.6828 25.5353 12.9357C25.5888 12.9398 25.6421 12.9419 25.6951 12.9419C26.7735 12.9406 27.6605 12.0921 27.7095 11.0148L27.7111 10.9805C27.7607 9.89613 26.9388 8.9691 25.8563 8.88841C22.9057 8.66128 19.9938 8.07589 17.1846 7.14517H17.1845C16.1578 6.80093 15.0434 7.33493 14.6684 8.35081L14.6559 8.38415C14.4656 8.89802 14.4924 9.4672 14.7301 9.96096C14.9679 10.4547 15.3961 10.8305 15.9165 11.0022L15.9165 11.0022Z" fill="#1466CF"/>
<path fill-rule="evenodd" clip-rule="evenodd" d="M37.0407 23.0784C37.0221 22.6925 37.314 22.3619 37.6993 22.3325C40.7548 22.0972 43.7704 21.491 46.6796 20.5273C47.0491 20.4058 47.448 20.6015 47.5779 20.9681L47.5848 20.9867C47.6533 21.1693 47.6439 21.3719 47.5588 21.5474C47.4739 21.7256 47.3196 21.8612 47.132 21.9224C44.1156 22.9209 40.9891 23.5494 37.8212 23.794C37.6257 23.8099 37.4322 23.7455 37.2853 23.6157C37.1383 23.4859 37.0505 23.3019 37.042 23.1059H37.042L37.0407 23.0784ZM36.4216 24.5827C36.7898 24.9121 37.2668 25.0939 37.7609 25.093C37.8139 25.093 37.8674 25.091 37.9209 25.0869C41.1935 24.8341 44.4234 24.1848 47.5396 23.1533C48.0597 22.9818 48.4876 22.6064 48.7255 22.1132C48.9634 21.62 48.9906 21.0514 48.8011 20.5376L48.7906 20.5094C48.4175 19.49 47.3011 18.9525 46.2715 19.2965C43.4624 20.2272 40.5505 20.8125 37.5999 21.0398C36.5175 21.1204 35.6956 22.0475 35.7452 23.1318L35.7464 23.1593C35.7671 23.7062 36.0111 24.2207 36.4215 24.5827L36.4216 24.5827Z" fill="#1466CF"/>
<path fill-rule="evenodd" clip-rule="evenodd" d="M37.0407 29.1325C37.0222 28.7466 37.3141 28.416 37.6993 28.3866C40.7548 28.1513 43.7705 27.5451 46.6796 26.5813C47.0462 26.4596 47.4431 26.6517 47.5751 27.0147C47.576 27.0172 47.5838 27.0383 47.5848 27.0408C47.6533 27.2233 47.644 27.4261 47.5588 27.6015C47.4739 27.7797 47.3196 27.9153 47.132 27.9765L37.8212 29.8481C37.6245 29.8641 37.4299 29.7988 37.2827 29.6673C37.1364 29.5383 37.0494 29.3549 37.0421 29.16L37.0407 29.1325ZM36.4214 30.6368C36.7897 30.9663 37.2668 31.148 37.761 31.1472C37.814 31.1472 37.8673 31.1451 37.9209 31.141C41.1935 30.8882 44.4234 30.2389 47.5396 29.2075C48.0593 29.0361 48.4872 28.661 48.7251 28.1682C48.963 27.6754 48.9907 27.1071 48.8017 26.5935L48.7906 26.5635C48.4176 25.544 47.3011 25.0065 46.2715 25.3506C43.4624 26.2813 40.5505 26.8666 37.6 27.0938C36.5175 27.1745 35.6956 28.1015 35.7452 29.1859L35.7465 29.2135C35.7671 29.7603 36.011 30.2747 36.4214 30.6367V30.6368Z" fill="#1466CF"/>
<path fill-rule="evenodd" clip-rule="evenodd" d="M37.0407 17.0028C37.0222 16.6169 37.3141 16.2863 37.6993 16.2569C40.7548 16.0216 43.7705 15.4154 46.6796 14.4517C47.0462 14.3298 47.4432 14.5219 47.5751 14.8851C47.576 14.8876 47.5838 14.9086 47.5848 14.9111C47.6533 15.0937 47.6439 15.2964 47.5589 15.4719C47.474 15.6501 47.3197 15.7856 47.132 15.8468C44.1156 16.8453 40.9892 17.4738 37.8212 17.7186C37.6258 17.7344 37.4323 17.67 37.2854 17.5402C37.1384 17.4104 37.0506 17.2264 37.042 17.0305V17.0305L37.0407 17.0028ZM36.4214 18.5071C36.7897 18.8366 37.2668 19.0184 37.761 19.0175C37.814 19.0175 37.8673 19.0155 37.9209 19.0113C41.1935 18.7585 44.4235 18.1093 47.5396 17.0778C48.0602 16.9061 48.4885 16.53 48.7262 16.0361C48.9639 15.5422 48.9905 14.9728 48.8 14.4588L48.7906 14.4339C48.4175 13.4144 47.3011 12.8768 46.2715 13.221C43.4624 14.1516 40.5505 14.7369 37.6 14.964C36.5175 15.0447 35.6956 15.9718 35.7452 17.0561L35.7465 17.0836C35.7671 17.6305 36.011 18.145 36.4214 18.5071L36.4214 18.5071Z" fill="#1466CF"/>
<path fill-rule="evenodd" clip-rule="evenodd" d="M37.0407 10.9273C37.0221 10.5414 37.314 10.2108 37.6993 10.1814C40.7548 9.94614 43.7703 9.33994 46.6794 8.3761C47.046 8.25461 47.4428 8.44663 47.575 8.80954C47.576 8.81207 47.5837 8.83313 47.5848 8.8356C47.6533 9.01816 47.6439 9.22087 47.5588 9.39635C47.4739 9.57453 47.3196 9.71006 47.132 9.7713C44.1156 10.7697 40.9891 11.3982 37.8212 11.6429C37.6245 11.659 37.4298 11.5936 37.2826 11.4621C37.1364 11.3331 37.0494 11.1497 37.042 10.9549L37.0407 10.9273ZM36.4215 12.4315C36.7898 12.7611 37.2669 12.9429 37.761 12.942C37.814 12.942 37.8673 12.9399 37.9209 12.9358C41.1935 12.683 44.4235 12.0337 47.5396 11.0023C48.0593 10.8309 48.4872 10.4558 48.7251 9.96302C48.963 9.47022 48.9907 8.90192 48.8017 8.38834L48.7906 8.35834C48.4175 7.33908 47.3012 6.80158 46.2717 7.14542H46.2715C43.4624 8.07613 40.5505 8.66152 37.6 8.88865C36.5175 8.96934 35.6956 9.8964 35.7452 10.9807L35.7465 11.0083C35.7671 11.5551 36.0111 12.0696 36.4215 12.4316L36.4215 12.4315Z" fill="#1466CF"/>
<path fill-rule="evenodd" clip-rule="evenodd" d="M57.9784 5.90344V10.6581H59.2745V5.90344C59.2731 4.70074 58.2991 3.72616 57.097 3.72483L52.2992 3.72485V5.02173H57.0971C57.5835 5.02225 57.9777 5.41667 57.9784 5.90344Z" fill="#1466CF"/>
<path fill-rule="evenodd" clip-rule="evenodd" d="M5.48386 5.90277C5.48446 5.41616 5.87862 5.02187 6.36499 5.02132H10.841V3.72483H6.36496C5.16324 3.72622 4.18938 4.70049 4.18797 5.90276V10.7637H5.48386V5.90277Z" fill="#1466CF"/>
<path fill-rule="evenodd" clip-rule="evenodd" d="M6.36344 38.5956H11.1111V37.2987H6.36344C5.8774 37.2982 5.4835 36.9038 5.48292 36.417V31.6623H4.18791V36.417C4.18933 37.6197 5.16253 38.5942 6.36344 38.5956Z" fill="#1466CF"/>
<path fill-rule="evenodd" clip-rule="evenodd" d="M57.9785 36.417C57.978 36.9037 57.5838 37.2981 57.0973 37.2987H52.5187V38.5956H57.0973C58.2993 38.5942 59.2734 37.6196 59.2747 36.417V31.6623H57.9786L57.9785 36.417Z" fill="#1466CF"/>
</svg>
